<?xml version="1.0" encoding="UTF-8" standalone="no"?><!-- Generator: Gravit.io --><svg xmlns="http://www.w3.org/2000/svg" xmlns:xlink="http://www.w3.org/1999/xlink" style="isolation:isolate" viewBox="0 0 192 192" width="192pt" height="192pt"><defs><clipPath id="_clipPath_bIbvDtmAJI3Fy91A2T1zK2e6CiUK29tf"><rect width="192" height="192"/></clipPath></defs><g clip-path="url(#_clipPath_bIbvDtmAJI3Fy91A2T1zK2e6CiUK29tf)"><path d="M 96 0 L 96 0 C 148.984 0 192 43.016 192 96 L 192 96 C 192 148.984 148.984 192 96 192 L 96 192 C 43.016 192 0 148.984 0 96 L 0 96 C 0 43.016 43.016 0 96 0 Z" style="stroke:none;fill:#FFFFFF;stroke-miterlimit:10;"/><path d=" M 110.92 97.324 C 111.533 100.556 114.65 102.679 117.882 102.066 L 133.087 99.183 C 136.319 98.57 138.441 95.453 137.829 92.221 C 137.216 88.989 134.099 86.866 130.867 87.479 L 115.662 90.363 C 112.805 90.904 110.815 93.403 110.815 96.208 C 110.815 96.575 110.849 96.949 110.92 97.324 L 110.92 97.324 L 110.92 97.324 Z  M 114.181 139.981 C 113.623 143.23 115.787 146.319 119.014 146.881 C 122.241 147.443 125.308 145.264 125.866 142.014 C 126.424 138.765 124.26 135.676 121.033 135.114 C 117.806 134.553 114.738 136.731 114.181 139.981 L 114.181 139.981 L 114.181 139.981 Z  M 110.176 66.961 C 112.833 51.48 102.525 36.762 87.152 34.087 C 71.78 31.411 57.164 41.792 54.507 57.272 C 51.851 72.753 62.158 87.47 77.531 90.145 C 92.904 92.821 107.52 82.441 110.176 66.961 L 110.176 66.961 Z  M 83.452 153.996 C 83.454 153.994 83.456 153.994 83.459 153.993 C 95.712 151.667 104.421 143.807 108.645 131.263 C 110.598 125.46 111.077 118.309 109.957 111.639 C 108.742 104.407 105.852 98.569 101.818 95.202 C 101.817 95.202 101.817 95.202 101.817 95.201 C 101.741 95.138 101.663 95.076 101.583 95.016 C 101.535 94.98 101.486 94.946 101.437 94.911 C 101.408 94.89 101.38 94.869 101.35 94.849 C 101.283 94.803 101.215 94.76 101.146 94.717 C 101.134 94.709 101.122 94.702 101.11 94.694 C 101.036 94.649 100.961 94.605 100.885 94.563 C 100.878 94.559 100.871 94.555 100.863 94.551 C 100.787 94.509 100.71 94.469 100.632 94.431 C 100.624 94.427 100.616 94.422 100.608 94.419 C 100.533 94.382 100.457 94.347 100.381 94.315 C 100.368 94.308 100.356 94.303 100.343 94.298 C 100.273 94.267 100.201 94.239 100.13 94.211 C 100.11 94.204 100.09 94.196 100.069 94.188 C 100.006 94.165 99.943 94.143 99.879 94.122 C 99.848 94.112 99.817 94.101 99.787 94.091 C 99.733 94.074 99.679 94.059 99.625 94.044 C 99.583 94.032 99.541 94.02 99.499 94.009 C 99.456 93.998 99.412 93.988 99.369 93.977 C 99.315 93.965 99.261 93.952 99.206 93.941 C 99.174 93.934 99.142 93.928 99.11 93.922 C 99.045 93.91 98.979 93.898 98.913 93.888 C 98.89 93.884 98.869 93.882 98.847 93.879 C 98.771 93.868 98.695 93.858 98.62 93.85 C 98.606 93.849 98.593 93.847 98.579 93.846 C 98.497 93.838 98.413 93.831 98.33 93.827 C 98.321 93.827 98.312 93.827 98.302 93.826 C 98.216 93.821 98.129 93.818 98.042 93.818 C 98.034 93.818 98.027 93.818 98.019 93.818 C 97.932 93.818 97.844 93.82 97.755 93.823 C 97.744 93.824 97.733 93.824 97.72 93.825 C 97.638 93.829 97.554 93.834 97.471 93.842 C 97.441 93.844 97.411 93.849 97.381 93.852 C 97.316 93.859 97.251 93.865 97.186 93.874 C 97.088 93.888 96.991 93.904 96.894 93.922 C 96.893 93.922 96.892 93.922 96.891 93.922 L 90.925 95.053 C 90.631 95.102 90.334 95.159 90.033 95.223 L 58.94 101.119 C 56.082 101.662 54.092 104.159 54.092 106.965 C 54.092 107.333 54.127 107.706 54.197 108.081 C 54.81 111.313 57.927 113.436 61.159 112.823 L 92.939 106.797 C 94.574 106.547 95.354 107.05 95.944 107.647 C 96.722 108.434 97.19 109.519 97.304 109.87 C 97.286 109.814 97.278 109.783 97.278 109.783 L 97.286 109.781 C 98.88 114.756 99.263 121.795 97.355 127.461 C 94.507 135.923 89.232 140.774 81.233 142.291 C 81.232 142.291 81.232 142.291 81.231 142.291 L 58.914 146.525 C 56.057 147.066 54.066 149.565 54.066 152.37 C 54.066 152.737 54.101 153.111 54.172 153.486 C 54.785 156.718 57.902 158.841 61.134 158.228 L 83.452 153.996 Z " fill-rule="evenodd" fill="rgb(4,138,129)"/></g></svg>