<?xml version="1.0" encoding="UTF-8" standalone="no"?><!-- Generator: Gravit.io --><svg xmlns="http://www.w3.org/2000/svg" xmlns:xlink="http://www.w3.org/1999/xlink" style="isolation:isolate" viewBox="0 0 109.655 163" width="109.655pt" height="163pt"><path d=" M 74.336 83.231 C 75.137 87.457 79.212 90.232 83.438 89.431 L 103.318 85.661 C 107.544 84.86 110.318 80.784 109.518 76.559 C 108.717 72.333 104.642 69.557 100.416 70.359 L 80.536 74.129 C 76.8 74.837 74.198 78.104 74.198 81.771 C 74.198 82.252 74.243 82.741 74.336 83.231 L 74.336 83.231 L 74.336 83.231 Z  M 78.599 139.004 C 77.87 143.252 80.699 147.291 84.918 148.026 C 89.137 148.76 93.148 145.911 93.877 141.662 C 94.606 137.414 91.777 133.375 87.558 132.641 C 83.339 131.907 79.328 134.755 78.599 139.004 L 78.599 139.004 L 78.599 139.004 Z  M 73.363 43.531 C 76.837 23.29 63.359 4.047 43.259 0.549 C 23.16 -2.949 4.05 10.623 0.576 30.864 C -2.897 51.104 10.58 70.347 30.68 73.845 C 50.78 77.343 69.89 63.771 73.363 43.531 L 73.363 43.531 Z  M 38.421 157.328 C 38.424 157.326 38.427 157.326 38.43 157.325 C 54.451 154.283 65.838 144.007 71.361 127.605 C 73.915 120.018 74.54 110.668 73.076 101.948 C 71.488 92.492 67.709 84.859 62.435 80.456 C 62.434 80.456 62.434 80.456 62.434 80.455 C 62.334 80.372 62.232 80.291 62.128 80.213 C 62.065 80.166 62.001 80.121 61.937 80.076 C 61.899 80.049 61.862 80.021 61.823 79.995 C 61.735 79.935 61.646 79.878 61.556 79.822 C 61.54 79.812 61.525 79.802 61.509 79.792 C 61.412 79.733 61.314 79.676 61.215 79.621 C 61.205 79.616 61.196 79.61 61.186 79.605 C 61.087 79.55 60.986 79.498 60.884 79.448 C 60.873 79.443 60.863 79.437 60.852 79.432 C 60.754 79.384 60.655 79.339 60.556 79.296 C 60.539 79.288 60.523 79.281 60.506 79.274 C 60.414 79.234 60.321 79.197 60.228 79.161 C 60.201 79.151 60.175 79.141 60.148 79.131 C 60.066 79.1 59.983 79.072 59.899 79.044 C 59.859 79.031 59.819 79.017 59.779 79.004 C 59.709 78.982 59.638 78.962 59.568 78.942 C 59.512 78.927 59.458 78.911 59.402 78.896 C 59.346 78.882 59.289 78.869 59.233 78.855 C 59.162 78.839 59.091 78.822 59.02 78.807 C 58.978 78.799 58.936 78.791 58.894 78.783 C 58.809 78.767 58.723 78.751 58.636 78.738 C 58.607 78.733 58.579 78.73 58.55 78.726 C 58.451 78.712 58.352 78.699 58.253 78.688 C 58.235 78.687 58.218 78.685 58.2 78.684 C 58.092 78.673 57.983 78.664 57.874 78.658 C 57.862 78.658 57.85 78.658 57.838 78.657 C 57.725 78.651 57.611 78.647 57.497 78.647 C 57.487 78.647 57.478 78.647 57.468 78.647 C 57.354 78.647 57.239 78.649 57.123 78.653 C 57.108 78.654 57.093 78.655 57.077 78.656 C 56.969 78.661 56.86 78.668 56.751 78.678 C 56.712 78.681 56.672 78.687 56.633 78.691 C 56.548 78.7 56.463 78.708 56.378 78.72 C 56.25 78.738 56.123 78.759 55.996 78.783 C 55.995 78.783 55.994 78.783 55.993 78.783 L 48.192 80.262 C 47.808 80.326 47.419 80.4 47.026 80.484 L 6.372 88.193 C 2.636 88.902 0.034 92.168 0.034 95.836 C 0.034 96.317 0.079 96.805 0.171 97.296 C 0.973 101.521 5.048 104.297 9.274 103.496 L 50.825 95.616 C 52.963 95.29 53.983 95.948 54.754 96.728 C 55.772 97.757 56.383 99.175 56.533 99.634 C 56.509 99.561 56.499 99.521 56.499 99.521 L 56.509 99.518 C 58.593 106.023 59.094 115.226 56.6 122.635 C 52.875 133.699 45.979 140.041 35.52 142.025 C 35.519 142.025 35.519 142.025 35.518 142.025 L 6.338 147.56 C 2.603 148.268 0 151.535 0 155.202 C 0 155.683 0.045 156.172 0.138 156.662 C 0.94 160.888 5.015 163.663 9.241 162.862 L 38.421 157.328 Z " fill-rule="evenodd" fill="rgb(255,255,255)"/></svg>