<?xml version="1.0" standalone="no"?><!-- Generator: Gravit.io --><svg xmlns="http://www.w3.org/2000/svg" xmlns:xlink="http://www.w3.org/1999/xlink" style="isolation:isolate" viewBox="132.672 127.68 110 163" width="110" height="163"><defs><clipPath id="_clipPath_S6wkeaIrZ7o0PjUu5X6TvsmjEWfEw8Xi"><rect width="375" height="812"/></clipPath></defs><g clip-path="url(#_clipPath_S6wkeaIrZ7o0PjUu5X6TvsmjEWfEw8Xi)"><g><path d=" M 207.008 210.911 C 207.809 215.137 211.884 217.912 216.11 217.111 L 235.99 213.341 C 240.216 212.54 242.99 208.464 242.19 204.239 C 241.389 200.013 237.314 197.237 233.088 198.039 L 213.208 201.809 C 209.472 202.517 206.87 205.784 206.87 209.451 C 206.87 209.932 206.915 210.421 207.008 210.911 L 207.008 210.911 L 207.008 210.911 Z  M 211.271 266.684 C 210.542 270.932 213.371 274.971 217.59 275.706 C 221.809 276.44 225.82 273.591 226.549 269.342 C 227.278 265.094 224.449 261.055 220.23 260.321 C 216.011 259.587 212 262.435 211.271 266.684 L 211.271 266.684 L 211.271 266.684 Z  M 206.035 171.211 C 209.509 150.97 196.031 131.727 175.931 128.229 C 155.832 124.731 136.722 138.303 133.248 158.544 C 129.775 178.784 143.252 198.027 163.352 201.525 C 183.452 205.023 202.562 191.451 206.035 171.211 L 206.035 171.211 Z  M 171.093 285.008 C 171.096 285.006 171.099 285.006 171.102 285.005 C 187.123 281.963 198.51 271.687 204.033 255.285 C 206.587 247.698 207.212 238.348 205.748 229.628 C 204.16 220.172 200.381 212.539 195.107 208.136 C 195.106 208.136 195.106 208.136 195.106 208.135 C 195.006 208.052 194.904 207.971 194.8 207.893 C 194.737 207.846 194.673 207.801 194.609 207.756 C 194.571 207.729 194.534 207.701 194.495 207.675 C 194.407 207.615 194.318 207.558 194.228 207.502 C 194.212 207.492 194.197 207.482 194.181 207.472 C 194.084 207.413 193.986 207.356 193.887 207.301 C 193.877 207.296 193.868 207.29 193.858 207.285 C 193.759 207.23 193.658 207.178 193.556 207.128 C 193.545 207.123 193.535 207.117 193.524 207.112 C 193.426 207.064 193.327 207.019 193.228 206.976 C 193.211 206.968 193.195 206.961 193.178 206.954 C 193.086 206.914 192.993 206.877 192.9 206.841 C 192.873 206.831 192.847 206.821 192.82 206.811 C 192.738 206.78 192.655 206.752 192.571 206.724 C 192.531 206.711 192.491 206.697 192.451 206.684 C 192.381 206.662 192.31 206.642 192.24 206.622 C 192.184 206.607 192.13 206.591 192.074 206.576 C 192.018 206.562 191.961 206.549 191.905 206.535 C 191.834 206.519 191.763 206.502 191.692 206.487 C 191.65 206.479 191.608 206.471 191.566 206.463 C 191.481 206.447 191.395 206.431 191.308 206.418 C 191.279 206.413 191.251 206.41 191.222 206.406 C 191.123 206.392 191.024 206.379 190.925 206.368 C 190.907 206.367 190.89 206.365 190.872 206.364 C 190.764 206.353 190.655 206.344 190.546 206.338 C 190.534 206.338 190.522 206.338 190.51 206.337 C 190.397 206.331 190.283 206.327 190.169 206.327 C 190.159 206.327 190.15 206.327 190.14 206.327 C 190.026 206.327 189.911 206.329 189.795 206.333 C 189.78 206.334 189.765 206.335 189.749 206.336 C 189.641 206.341 189.532 206.348 189.423 206.358 C 189.384 206.361 189.344 206.367 189.305 206.371 C 189.22 206.38 189.135 206.388 189.05 206.4 C 188.922 206.418 188.795 206.439 188.668 206.463 C 188.667 206.463 188.666 206.463 188.665 206.463 L 180.864 207.942 C 180.48 208.006 180.091 208.08 179.698 208.164 L 139.044 215.873 C 135.308 216.582 132.706 219.848 132.706 223.516 C 132.706 223.997 132.751 224.485 132.843 224.976 C 133.645 229.201 137.72 231.977 141.946 231.176 L 183.497 223.296 C 185.635 222.97 186.655 223.628 187.426 224.408 C 188.444 225.437 189.055 226.855 189.205 227.314 C 189.181 227.241 189.171 227.201 189.171 227.201 L 189.181 227.198 C 191.265 233.703 191.766 242.906 189.272 250.315 C 185.547 261.379 178.651 267.721 168.192 269.705 C 168.191 269.705 168.191 269.705 168.19 269.705 L 139.01 275.24 C 135.275 275.948 132.672 279.215 132.672 282.882 C 132.672 283.363 132.717 283.852 132.81 284.342 C 133.612 288.568 137.687 291.343 141.913 290.542 L 171.093 285.008 Z " fill-rule="evenodd" fill="rgb(198,240,237)"/></g></g></svg>