<?xml version="1.0" encoding="utf-8"?>
<!-- Generator: Adobe Illustrator 21.0.0, SVG Export Plug-In . SVG Version: 6.00 Build 0)  -->
<svg version="1.1" id="Layer_1" xmlns="http://www.w3.org/2000/svg" xmlns:xlink="http://www.w3.org/1999/xlink" x="0px" y="0px"
	 viewBox="0 0 595.3 595.3" style="enable-background:new 0 0 595.3 595.3;" xml:space="preserve">
<style type="text/css">
	.st0{fill:#FFCCCC;}
	.st1{fill:#FF7373;}
	.st2{fill:#FFFFFF;}
	.st3{fill:#700000;}
	.st4{fill:#E82E2E;}
	.st5{fill:#991F1F;}
</style>
<g>
	<circle class="st0" cx="297.6" cy="297.6" r="161"/>
	<g>
		<path class="st1" d="M342.9,370.6c3.2,3.4,6.9,6,11.1,8.1c-3.7,16-17.9,30.4-24.7,36.6c-3-6-9.4-16.3-20.5-24.3
			C318.2,389,331.7,383.8,342.9,370.6z"/>
		<path class="st2" d="M377.3,237.3c-0.9,9-4.4,14.9-7.7,18.6c0.9-6.4,1.4-13.5,1.4-21.4c0-5.5-0.3-10.7-0.8-15.7
			c2.3,0.4,4.1,1.2,5.1,2.4C377.6,223.6,378.2,228.6,377.3,237.3z"/>
		<path class="st2" d="M218,237.3c-0.9-8.7-0.3-13.7,1.9-16.1c1.1-1.2,2.8-2,5.1-2.4c-0.5,5-0.8,10.2-0.8,15.7
			c0,7.9,0.5,14.9,1.3,21.3C222.3,252.1,218.9,246.3,218,237.3z"/>
		<path class="st3" d="M218.2,213.4c1.2-27.2,6.6-46.1,16.4-57.8c14.3-17,28.2-9.7,28.8-9.4c1.8,1,4,0.4,5-1.4
			c0.1-0.1,7.3-11.6,35.5-11.6c28.5,0,68,24.9,72.7,79.8c-2.8-1.4-6.2-2.1-10.5-2.1c-0.1,0-0.1,0-0.2,0c-0.1,0-0.1,0-0.2,0
			c-26.7,2.5-53.2-18.1-53.4-18.3c-1.2-1-3-1.1-4.3-0.2c-1.3,0.9-2,2.5-1.6,4.1c1.3,4.9,2.9,9.6,4.4,13.4
			c-26.8-14.3-39.1-37.5-39.2-37.8c-0.7-1.4-2.3-2.2-3.8-2c-1.6,0.2-2.8,1.4-3.1,3c-0.1,0.4-7.3,37.9-35.5,37.9
			C224.7,211,221.1,211.9,218.2,213.4z"/>
		<path class="st2" d="M251.5,300.9c-6.9-9.4-19.8-27-19.8-66.4c0-5.7,0.3-11.1,0.9-16.3c22.4-2,32.9-23.1,37-35.3
			c6.9,10,22,27.7,47,37.9c0.5,0.2,0.9,0.3,1.4,0.3c1,0,2-0.4,2.7-1.2c1.1-1.1,1.3-2.8,0.7-4.1c0-0.1-2.2-4.7-4.6-11.1
			c10.1,6.1,27.5,14.3,45.9,13.9c0.5,5.1,0.9,10.4,0.9,16c0,39.4-12.9,57-19.8,66.4c-7.7,10.6-16.8,17.9-26.8,22
			c-4.3,1.7-9.5,1.6-15.4,1.6c-2.5,0-5.3,0-7.8,0c-6,0.1-11.1,0.1-15.4-1.6C268.3,318.9,259.2,311.5,251.5,300.9z"/>
		<path class="st1" d="M252.4,370.6c11.2,13.2,24.8,18.4,34.1,20.4c-11,8-17.5,18.4-20.4,24.3c-6.8-6.2-21-20.7-24.7-36.6
			C245.5,376.6,249.2,374,252.4,370.6z"/>
		<path class="st2" d="M297.8,384.9C297.8,384.9,297.8,384.9,297.8,384.9c-0.1,0-0.2,0-0.2,0c0,0,0,0,0,0c0,0,0,0,0,0
			c0,0-0.1,0-0.1,0c-0.2,0-23.9,0.4-40.5-20.4c6.8-10.6,12.2-26,10.5-38.7c2.6,1.6,5.3,2.9,8.1,4c4.6,1.8,9.5,2.1,14.7,2.1
			c1.2,0,2.4,0,3.6,0l3.8,0l3.8,0c6.5,0.1,12.6,0.2,18.3-2.1c2.8-1.1,5.5-2.4,8.1-4c-1.8,12.7,3.7,28.1,10.5,38.7
			C322.4,384.4,300.6,385,297.8,384.9z"/>
		<g>
			<path class="st4" d="M360.9,381.8c5.1,1.9,10.9,3.5,17.3,5.3c5.1,1.4,10.8,3,17,5c17.5,5.6,40,12.8,50.7,21.1l-3.4,5.7
				c-10.6-8.1-29.4-14.2-49.3-20.5l-5-1.6c-6.4-2-12.4-3.7-17.7-5.2c-4.3-1.2-8.2-2.3-11.8-3.4C359.5,386.2,360.3,384,360.9,381.8z"
				/>
			<path class="st4" d="M200.1,392.1c6.2-2,11.8-3.6,17-5c6.4-1.8,12.2-3.4,17.3-5.3c0.6,2.2,1.4,4.4,2.3,6.5
				c-3.5,1.1-7.4,2.2-11.8,3.4c-5.3,1.5-11.3,3.1-17.7,5.2l-5,1.6c-19.9,6.3-38.7,12.3-49.3,20.5l-3.4-5.7
				C160.1,404.9,182.6,397.7,200.1,392.1z"/>
			<path class="st4" d="M132.3,462c2.4-9.7,8-32.3,11.4-41.9c0.1-0.4,0.4-0.7,0.5-1.1l25.6,42.9H132.3z"/>
			<path class="st4" d="M425.5,462L451,419c0.2,0.4,0.4,0.7,0.5,1.1c3.4,9.6,9,32.2,11.4,41.9H425.5z"/>
		</g>
		<g>
			<path class="st3" d="M297.6,285.6c-2,0-3.7-1.7-3.7-3.7v-37.6c0-2,1.7-3.7,3.7-3.7c2,0,3.7,1.7,3.7,3.7v37.6
				C301.4,284,299.7,285.6,297.6,285.6z"/>
		</g>
		<path class="st3" d="M471.3,464.8c-0.3-1.4-8.3-34.5-12.7-47.2c-4.8-13.6-28.4-22.1-61.1-32.5c-6.3-2-12-3.6-17.2-5.1
			c-16.5-4.6-27.5-7.7-34.3-17.4c-9-12.8-16.2-35.8-6.2-45.8c0,0,0,0,0-0.1c3.6-3.3,6.9-7.2,10.1-11.5c5.1-7,13.3-18.2,17.9-38.3
			c4.4-2.6,15.1-10.6,17-29c0.5-5,0.7-10.1-0.2-14.5c-0.3-67.3-47.2-97.6-80.5-97.6c-24.7,0-35.8,8.3-39.9,12.7
			c-6.2-2.1-21-4.5-35.1,12.3c-12.3,14.7-18.4,39.2-18.4,74.8c-0.5,3.9-0.3,8.1,0.1,12.4c1.9,18.5,12.8,26.5,17.1,29
			c4.7,20.3,13,31.7,17.8,38.3c3.1,4.3,6.5,8.1,10.1,11.5c0,0,0,0,0,0.1c10,10,2.8,33-6.2,45.8c-6.8,9.7-17.7,12.7-34.3,17.4
			c-5.2,1.5-11,3.1-17.2,5.1c-32.8,10.5-56.3,18.9-61.1,32.5c-4.5,12.7-12.4,45.8-12.7,47.2c-0.3,1.1,0,2.3,0.7,3.2
			c0.7,0.9,1.8,1.4,2.9,1.4h340.1c1.1,0,2.2-0.5,2.9-1.4C471.3,467.1,471.6,465.9,471.3,464.8z M360.9,381.8
			c5.1,1.9,10.9,3.5,17.3,5.3c5.1,1.4,10.8,3,17,5c17.5,5.6,40,12.8,50.7,21.1l-3.4,5.7c-10.6-8.1-29.4-14.2-49.3-20.5l-5-1.6
			c-6.4-2-12.4-3.7-17.7-5.2c-4.4-1.2-8.3-2.3-11.8-3.4C359.5,386.2,360.3,384,360.9,381.8z M342.9,370.6c3.2,3.4,6.9,6,11.1,8.1
			c-3.7,16-17.9,30.4-24.7,36.6c-1.1-2.2-2.7-4.9-4.7-7.9c0,0,0,0,0-0.1c-3.6-5.3-8.7-11.2-15.7-16.4
			C318.2,389,331.7,383.8,342.9,370.6z M317,409.6l-9.2,13.9h-20.3l-9.2-13.9c4.3-5.8,10.6-12.3,19.3-16.8
			C306.4,397.3,312.7,403.8,317,409.6z M377.3,237.3c-0.9,9-4.3,14.9-7.6,18.6c0.8-6.4,1.3-13.4,1.3-21.3c0-5.5-0.3-10.7-0.8-15.7
			c2.3,0.4,4.1,1.2,5.1,2.4C377.6,223.6,378.2,228.6,377.3,237.3z M218,237.3c-0.9-8.7-0.3-13.7,1.9-16.1c1.1-1.2,2.8-2,5.1-2.4
			c-0.5,5-0.8,10.2-0.8,15.7c0,7.9,0.5,15,1.4,21.3C222.4,252.2,218.9,246.3,218,237.3z M218.2,213.4c1.2-27.2,6.6-46.1,16.4-57.8
			c14.3-17,28.2-9.7,28.8-9.4c1.8,1,4,0.4,5-1.4c0.1-0.1,7.3-11.6,35.5-11.6c28.5,0,68,24.9,72.7,79.8c-2.8-1.4-6.2-2.1-10.5-2.1
			c-0.1,0-0.1,0-0.2,0c-0.1,0-0.1,0-0.2,0c-26.7,2.6-53.2-18.1-53.4-18.3c-1.2-1-3-1.1-4.3-0.2c-1.3,0.9-2,2.5-1.6,4.1
			c1.3,4.9,2.9,9.6,4.4,13.4c-26.8-14.3-39.1-37.5-39.2-37.8c-0.7-1.4-2.3-2.2-3.8-2c-1.6,0.2-2.8,1.4-3.1,3
			c-0.1,0.4-7.3,37.9-35.5,37.9C224.7,211,221.1,211.9,218.2,213.4z M251.5,300.9c-6.9-9.4-19.8-27-19.8-66.4
			c0-5.7,0.3-11.2,0.9-16.3c22.4-2,32.9-23.1,37-35.3c6.9,10,22,27.7,47,37.9c0.5,0.2,0.9,0.3,1.4,0.3c1,0,2-0.4,2.7-1.2
			c1.1-1.1,1.3-2.8,0.7-4.1c0-0.1-2.2-4.8-4.6-11.1c10.1,6.1,27.5,14.3,45.9,13.9c0.5,5.1,0.9,10.4,0.9,16c0,39.4-12.9,57-19.8,66.4
			c-7.7,10.6-16.8,17.9-26.8,22c-4.3,1.7-9.4,1.6-15.4,1.6c-2.5,0-5.3,0-7.8,0c-5.9,0.1-11.1,0.1-15.4-1.6
			C268.3,318.9,259.2,311.5,251.5,300.9z M267.5,325.8c2.6,1.6,5.3,2.9,8.1,4c4.6,1.8,9.5,2.1,14.7,2.1c1.2,0,2.4,0,3.6,0l3.8,0
			l3.8,0c6.5,0.1,12.6,0.2,18.3-2.1c2.8-1.1,5.5-2.5,8.1-4c-1.8,12.7,3.7,28.1,10.5,38.7c-15.9,19.9-37.7,20.4-40.5,20.4
			c0,0-0.1,0-0.1,0c-0.1,0-0.2,0-0.2,0c0,0,0,0,0,0c0,0,0,0,0,0c-1.2,0.1-24,0.2-40.5-20.4C263.8,353.9,269.2,338.5,267.5,325.8z
			 M252.4,370.6c11.2,13.2,24.8,18.4,34.1,20.4c-7,5.1-12.2,11.1-15.7,16.4c0,0,0,0,0,0c-2,3-3.6,5.8-4.7,7.9
			c-6.8-6.2-21-20.7-24.7-36.6C245.5,376.6,249.2,374,252.4,370.6z M200.1,392.1c6.2-2,11.8-3.6,17-5c6.4-1.8,12.2-3.4,17.3-5.3
			c0.6,2.2,1.4,4.4,2.3,6.5c-3.5,1.1-7.4,2.2-11.8,3.4c-5.3,1.5-11.3,3.1-17.7,5.2l-5,1.6c-19.9,6.3-38.7,12.3-49.3,20.5l-3.4-5.7
			C160.1,404.9,182.6,397.7,200.1,392.1z M132.3,462c2.4-9.7,8-32.3,11.4-41.9c0.1-0.4,0.4-0.7,0.5-1.1l25.6,42.9H132.3z M274,462
			h-95.6l-21.8-36.6c9.2-7.5,27.9-13.5,47.7-19.8l5-1.6c6.2-2,12.2-3.6,17.4-5.1c4.8-1.3,9.1-2.5,13-3.8
			c9.2,16.6,24.3,28.6,25.2,29.3c0.7,0.5,1.5,0.8,2.3,0.8c0.3,0,0.7,0,1-0.1c1.1-0.3,2.1-1.2,2.5-2.3c0-0.1,1-2.6,3-6.3l7.6,11.5
			L274,462z M281.6,462l6.8-31.1h18.3l6.8,31.1H281.6z M321.3,462l-7.5-34.1l7.6-11.5c2.1,3.7,3,6.3,3.1,6.3c0.4,1.1,1.3,2,2.5,2.3
			c0.3,0.1,0.7,0.1,1,0.1c0.8,0,1.6-0.3,2.3-0.8c0.8-0.7,16-12.7,25.2-29.3c3.9,1.3,8.2,2.5,13,3.8c5.2,1.4,11.2,3.1,17.4,5.1l5,1.6
			c19.8,6.3,38.5,12.3,47.7,19.8L416.8,462H321.3z M425.5,462L451,419c0.2,0.4,0.4,0.7,0.5,1.1c3.4,9.6,9,32.2,11.4,41.9H425.5z"/>
		<path class="st5" d="M317,409.6l-9.2,13.9h-20.3l-9.2-13.9c4.3-5.8,10.6-12.3,19.3-16.8C306.4,397.3,312.7,403.8,317,409.6z"/>
		<path class="st4" d="M274,462h-95.6l-21.8-36.6c9.2-7.5,27.9-13.5,47.7-19.8l5-1.6c6.2-2,12.2-3.6,17.4-5.1
			c4.8-1.3,9.1-2.5,13-3.8c9.2,16.6,24.3,28.6,25.2,29.3c0.7,0.5,1.5,0.8,2.3,0.8c0.3,0,0.7,0,1-0.1c1.1-0.3,2.1-1.2,2.5-2.3
			c0-0.1,1-2.6,3-6.3l7.6,11.5L274,462z"/>
		<polygon class="st5" points="281.6,462 288.5,430.8 306.8,430.8 313.7,462 		"/>
		<path class="st4" d="M321.3,462l-7.5-34.1l7.6-11.5c2.1,3.7,3,6.3,3.1,6.3c0.4,1.1,1.3,2,2.5,2.3c0.3,0.1,0.7,0.1,1,0.1
			c0.8,0,1.6-0.3,2.3-0.8c0.8-0.7,16-12.7,25.2-29.3c3.9,1.3,8.2,2.5,13,3.8c5.2,1.4,11.2,3.1,17.4,5.1l5,1.6
			c19.8,6.3,38.5,12.3,47.7,19.8L416.8,462H321.3z"/>
	</g>
</g>
</svg>
