<?xml version="1.0" encoding="UTF-8" standalone="no"?><!-- Generator: Gravit.io --><svg xmlns="http://www.w3.org/2000/svg" xmlns:xlink="http://www.w3.org/1999/xlink" style="isolation:isolate" viewBox="0 0 2404.4 760.703" width="2404.4pt" height="760.703pt"><clipPath id="_clipPath_3slIkqptH4Ap8MzPkl9FHwJm7I6zHTM3"><path d=" M 0 0 L 0 760.703 L 2404.4 760.703 L 2404.4 0 L 0 0 Z " fill="rgb(255,255,255)"/></clipPath><g clip-path="url(#_clipPath_3slIkqptH4Ap8MzPkl9FHwJm7I6zHTM3)"><path d=" M 259.819 247.817 C 203.087 247.817 150.554 265.866 107.778 296.432 C 105.064 269.135 82.035 247.817 54.024 247.817 C 24.187 247.817 0 272.005 0 301.841 L 0 706.524 C 0 736.361 24.187 760.547 54.024 760.547 C 83.861 760.547 108.048 736.361 108.048 706.524 L 108.048 504.204 C 108.048 422.409 176.132 355.865 259.819 355.865 C 343.507 355.865 411.59 422.409 411.59 504.204 L 411.59 706.637 C 411.59 736.475 435.778 760.661 465.614 760.661 C 495.451 760.661 519.638 736.475 519.638 706.637 L 519.638 504.204 C 519.638 362.832 403.084 247.817 259.819 247.817 Z " fill="rgb(254,254,254)"/><path d=" M 1981.67 652.62 C 1897.98 652.62 1829.9 586.075 1829.9 504.28 C 1829.9 422.485 1897.98 355.941 1981.67 355.941 C 2065.36 355.941 2133.44 422.485 2133.44 504.28 C 2133.44 586.075 2065.36 652.62 1981.67 652.62 Z  M 1981.67 247.893 C 1838.41 247.893 1721.85 362.908 1721.85 504.28 C 1721.85 645.651 1838.41 760.668 1981.67 760.668 C 2038.4 760.668 2090.94 742.619 2133.71 712.053 C 2136.41 739.361 2159.45 760.693 2187.47 760.693 C 2217.31 760.693 2241.49 736.505 2241.49 706.669 L 2241.49 504.28 C 2241.49 362.908 2124.94 247.893 1981.67 247.893 Z " fill="rgb(254,254,254)"/><path d=" M 2350.38 247.889 C 2320.54 247.889 2296.36 272.076 2296.36 301.913 L 2296.36 706.471 C 2296.36 736.308 2320.54 760.495 2350.38 760.495 C 2380.21 760.495 2404.4 736.308 2404.4 706.471 L 2404.4 301.913 C 2404.4 272.076 2380.21 247.889 2350.38 247.889 Z " fill="rgb(254,254,254)"/><path d=" M 1151.85 245.023 C 1181.17 239.463 1200.43 211.194 1194.87 181.88 L 1168.71 43.967 C 1163.16 14.653 1134.88 -4.597 1105.57 0.953 C 1076.26 6.513 1057 34.783 1062.56 64.097 L 1088.71 202.01 C 1093.63 227.924 1116.29 245.978 1141.73 245.978 C 1145.07 245.978 1148.46 245.667 1151.85 245.023 Z " fill="rgb(254,254,254)"/><path d=" M 1538.76 215.445 C 1568.24 220.503 1596.25 200.878 1601.35 171.612 C 1606.44 142.346 1586.68 114.521 1557.21 109.463 C 1527.74 104.405 1499.72 124.03 1494.62 153.296 C 1489.53 182.562 1509.29 210.387 1538.76 215.445 Z " fill="rgb(254,254,254)"/><path d=" M 876.447 251.771 C 736.036 227.673 602.539 321.173 578.274 460.608 C 554.008 600.043 648.162 732.611 788.573 756.709 C 928.985 780.805 1062.48 687.306 1086.75 547.871 C 1111.01 408.436 1016.86 275.867 876.447 251.771 Z " fill="rgb(254,254,254)"/><path d=" M 1665.88 494.172 C 1665.88 494.151 1665.87 494.13 1665.87 494.11 C 1644.77 382.967 1573.47 303.971 1459.69 265.661 C 1407.06 247.943 1342.19 243.606 1281.7 253.76 C 1216.1 264.778 1163.15 290.994 1132.61 327.583 C 1132.6 327.585 1132.6 327.588 1132.6 327.589 C 1132.02 328.282 1131.46 328.989 1130.92 329.709 C 1130.59 330.146 1130.28 330.593 1129.97 331.037 C 1129.78 331.301 1129.59 331.559 1129.41 331.826 C 1128.99 332.437 1128.6 333.056 1128.21 333.679 C 1128.14 333.787 1128.07 333.892 1128 334.001 C 1127.59 334.675 1127.2 335.357 1126.81 336.043 C 1126.78 336.109 1126.74 336.174 1126.7 336.241 C 1126.32 336.935 1125.96 337.635 1125.61 338.341 C 1125.58 338.414 1125.54 338.485 1125.5 338.558 C 1125.17 339.239 1124.86 339.927 1124.56 340.618 C 1124.51 340.732 1124.45 340.845 1124.4 340.96 C 1124.13 341.6 1123.87 342.246 1123.63 342.894 C 1123.55 343.077 1123.48 343.259 1123.41 343.444 C 1123.2 344.017 1123 344.594 1122.81 345.172 C 1122.72 345.45 1122.62 345.726 1122.54 346.005 C 1122.38 346.492 1122.24 346.982 1122.1 347.472 C 1122 347.854 1121.89 348.234 1121.78 348.619 C 1121.68 349.009 1121.59 349.401 1121.5 349.792 C 1121.39 350.285 1121.27 350.777 1121.17 351.274 C 1121.11 351.562 1121.06 351.852 1121 352.141 C 1120.89 352.737 1120.78 353.333 1120.69 353.934 C 1120.66 354.133 1120.63 354.333 1120.6 354.531 C 1120.51 355.216 1120.42 355.902 1120.34 356.592 C 1120.33 356.715 1120.32 356.838 1120.31 356.96 C 1120.24 357.712 1120.18 358.464 1120.14 359.222 C 1120.13 359.305 1120.13 359.388 1120.12 359.47 C 1120.09 360.256 1120.06 361.045 1120.06 361.837 C 1120.05 361.902 1120.06 361.968 1120.06 362.034 C 1120.06 362.83 1120.07 363.627 1120.1 364.428 C 1120.11 364.535 1120.12 364.642 1120.12 364.749 C 1120.16 365.501 1120.2 366.255 1120.27 367.01 C 1120.29 367.284 1120.33 367.557 1120.36 367.831 C 1120.42 368.421 1120.48 369.009 1120.56 369.6 C 1120.69 370.486 1120.83 371.369 1121 372.25 C 1121 372.256 1121 372.263 1121 372.27 L 1131.26 426.385 C 1131.7 429.05 1132.22 431.75 1132.8 434.478 L 1186.28 716.503 C 1191.2 742.418 1213.86 760.471 1239.3 760.471 C 1242.64 760.471 1246.03 760.159 1249.43 759.515 C 1278.74 753.955 1298 725.685 1292.44 696.371 L 1237.77 408.12 C 1235.52 393.287 1240.07 386.214 1245.49 380.864 C 1252.62 373.801 1262.46 369.563 1265.65 368.525 C 1265.14 368.691 1264.87 368.761 1264.87 368.761 L 1264.85 368.69 C 1309.97 354.232 1373.81 350.755 1425.21 368.062 C 1501.96 393.9 1545.96 441.735 1559.72 514.297 C 1559.72 514.301 1559.72 514.305 1559.72 514.308 L 1598.12 716.737 C 1603.04 742.65 1625.7 760.703 1651.14 760.703 C 1654.48 760.703 1657.86 760.391 1661.27 759.748 C 1690.58 754.187 1709.84 725.915 1704.28 696.601 L 1665.88 494.172 Z " fill="rgb(254,254,254)"/></g></svg>