<?xml version="1.0" standalone="no"?><!-- Generator: Gravit.io --><svg xmlns="http://www.w3.org/2000/svg" xmlns:xlink="http://www.w3.org/1999/xlink" style="isolation:isolate" viewBox="119 66 163 145" width="163" height="145"><defs><clipPath id="_clipPath_VxzhsHNBitOAHZuA8UX1TjWNIICmPUwY"><rect width="560" height="315"/></clipPath></defs><g clip-path="url(#_clipPath_VxzhsHNBitOAHZuA8UX1TjWNIICmPUwY)"><g><circle vector-effect="non-scaling-stroke" cx="200.56774800292533" cy="138.49978595858" r="72.5" fill="rgb(249,255,215)"/><path d=" M 215.409 139.698 C 215.65 137.196 217.841 135.228 220.52 135.087 L 220.52 141.92 C 220.52 143.085 220.636 143.633 220.811 145.345 L 220.52 145.345 C 219.073 145.343 217.693 144.732 216.718 143.662 C 215.737 142.588 215.261 141.146 215.409 139.698 L 215.409 139.698 L 215.409 139.698 L 215.409 139.698 L 215.409 139.698 L 215.409 139.698 L 215.409 139.698 L 215.409 139.698 L 215.409 139.698 L 215.409 139.698 L 215.409 139.698 Z  M 141.25 143.634 C 141.25 141.273 143.167 139.356 145.529 139.356 C 147.891 139.356 149.808 141.273 149.808 143.634 C 149.808 145.996 147.891 147.913 145.529 147.913 C 143.167 147.913 141.25 145.996 141.25 143.634 L 141.25 143.634 L 141.25 143.634 L 141.25 143.634 L 141.25 143.634 Z  M 235.924 163.08 C 238.082 163.78 240.381 164.168 242.77 164.168 C 245.159 164.168 247.458 163.78 249.616 163.08 L 249.616 164.168 C 249.616 167.944 246.546 171.014 242.77 171.014 C 238.994 171.014 235.924 167.944 235.924 164.168 L 235.924 163.08 L 235.924 163.08 L 235.924 163.08 L 235.924 163.08 L 235.924 163.08 L 235.924 163.08 L 235.924 163.08 L 235.924 163.08 L 235.924 163.08 L 235.924 163.08 L 235.924 163.08 Z  M 253.039 164.168 L 253.039 161.637 C 258.165 158.956 262.121 153.902 263.931 148.768 L 265.02 148.768 L 265.02 165.88 C 265.02 166.824 264.253 167.595 263.308 167.595 L 252.44 167.595 C 252.822 165.883 253.039 165.371 253.039 164.168 L 253.039 164.168 L 253.039 164.168 L 253.039 164.168 L 253.039 164.168 L 253.039 164.168 L 253.039 164.168 L 253.039 164.168 L 253.039 164.168 L 253.039 164.168 L 253.039 164.168 Z  M 270.155 140.208 C 270.152 143.043 267.855 145.341 265.02 145.345 L 264.729 145.345 C 264.904 143.633 265.02 143.085 265.02 141.918 L 265.02 135.072 C 267.851 135.072 270.155 137.377 270.155 140.208 L 270.155 140.208 L 270.155 140.208 L 270.155 140.208 L 270.155 140.208 L 270.155 140.208 L 270.155 140.208 L 270.155 140.208 L 270.155 140.208 L 270.155 140.208 L 270.155 140.208 Z  M 251.969 97.686 C 252.661 97.322 253.49 97.334 254.171 97.719 C 254.388 97.844 254.751 98.123 254.751 98.535 L 254.751 105.537 C 253.094 104.665 251.345 103.978 249.537 103.489 C 249.58 103.179 249.616 102.867 249.616 102.552 C 249.616 101.416 249.311 100.362 248.82 99.417 L 251.969 97.686 L 251.969 97.686 L 251.969 97.686 L 251.969 97.686 L 251.969 97.686 L 251.969 97.686 L 251.969 97.686 L 251.969 97.686 L 251.969 97.686 L 251.969 97.686 L 251.969 97.686 Z  M 217.097 159.663 L 217.097 165.881 C 217.1 168.716 219.397 171.013 222.231 171.018 L 235.138 171.018 C 237.019 172.729 239.739 174.441 242.77 174.441 C 245.801 174.441 248.521 172.729 250.402 171.018 L 263.308 171.018 C 266.139 171.018 268.443 168.712 268.443 165.88 L 268.443 159.662 C 272.864 165.337 275.289 172.729 275.289 179.575 L 265.02 179.575 L 265.02 176.152 L 261.597 176.152 L 261.597 179.575 L 220.52 179.575 L 220.52 176.152 L 217.097 176.152 L 217.097 179.575 L 210.251 179.575 C 210.251 172.729 212.676 165.337 217.097 159.663 L 217.097 159.663 L 217.097 159.663 L 217.097 159.663 L 217.097 159.663 L 217.097 159.663 L 217.097 159.663 L 217.097 159.663 L 217.097 159.663 L 217.097 159.663 L 217.097 159.663 Z  M 247.905 141.918 C 247.905 140.029 249.438 138.495 251.328 138.495 C 253.217 138.495 254.751 140.029 254.751 141.918 C 254.751 143.807 253.217 145.341 251.328 145.341 C 249.438 145.341 247.905 143.807 247.905 141.918 L 247.905 141.918 L 247.905 141.918 L 247.905 141.918 L 247.905 141.918 L 247.905 141.918 L 247.905 141.918 L 247.905 141.918 L 247.905 141.918 Z  M 242.77 99.129 C 244.658 99.129 246.193 100.665 246.193 102.552 C 246.193 102.638 246.178 102.72 246.172 102.804 C 245.057 102.655 243.925 102.552 242.77 102.552 C 241.615 102.552 240.485 102.657 239.367 102.804 C 239.362 102.722 239.347 102.638 239.347 102.552 C 239.347 100.666 240.882 99.129 242.77 99.129 L 242.77 99.129 L 242.77 99.129 L 242.77 99.129 L 242.77 99.129 L 242.77 99.129 L 242.77 99.129 L 242.77 99.129 L 242.77 99.129 L 242.77 99.129 L 242.77 99.129 Z  M 221.608 148.768 C 223.419 153.902 227.375 158.956 232.501 161.637 L 232.501 164.168 C 232.501 165.371 232.718 165.883 233.1 167.595 L 222.231 167.595 C 221.287 167.595 220.52 166.824 220.52 165.88 L 220.52 148.768 L 221.608 148.768 L 221.608 148.768 L 221.608 148.768 L 221.608 148.768 L 221.608 148.768 L 221.608 148.768 L 221.608 148.768 L 221.608 148.768 L 221.608 148.768 L 221.608 148.768 L 221.608 148.768 Z  M 244.481 121.379 L 244.481 117.96 L 241.058 117.96 L 241.058 121.379 C 241.058 122.324 240.292 123.094 239.347 123.094 L 227.366 123.094 L 227.366 126.517 L 239.347 126.517 C 242.178 126.517 244.481 124.212 244.481 121.379 L 244.481 121.379 L 244.481 121.379 L 244.481 121.379 L 244.481 121.379 L 244.481 121.379 L 244.481 121.379 L 244.481 121.379 L 244.481 121.379 L 244.481 121.379 Z  M 230.789 141.918 C 230.789 140.029 232.323 138.495 234.212 138.495 C 236.101 138.495 237.635 140.029 237.635 141.918 C 237.635 143.807 236.101 145.341 234.212 145.341 C 232.323 145.341 230.789 143.807 230.789 141.918 L 230.789 141.918 L 230.789 141.918 L 230.789 141.918 L 230.789 141.918 L 230.789 141.918 L 230.789 141.918 L 230.789 141.918 Z  M 247.905 148.768 C 247.905 152.191 245.606 153.902 242.77 153.902 C 239.934 153.902 237.635 152.191 237.635 148.768 L 247.905 148.768 L 247.905 148.768 L 247.905 148.768 L 247.905 148.768 L 247.905 148.768 L 247.905 148.768 L 247.905 148.768 Z  M 230.789 98.535 C 230.789 98.123 231.152 97.846 231.369 97.717 C 232.05 97.332 232.879 97.32 233.57 97.685 L 236.72 99.417 C 236.205 100.382 235.932 101.458 235.924 102.552 C 235.924 102.867 235.96 103.179 236.002 103.487 C 234.195 103.976 232.446 104.663 230.789 105.536 L 230.789 98.535 L 230.789 98.535 L 230.789 98.535 L 230.789 98.535 L 230.789 98.535 L 230.789 98.535 L 230.789 98.535 L 230.789 98.535 L 230.789 98.535 L 230.789 98.535 L 230.789 98.535 Z  M 160.077 143.634 C 160.077 141.273 161.994 139.356 164.356 139.356 C 166.718 139.356 168.635 141.273 168.635 143.634 C 168.635 145.996 166.718 147.913 164.356 147.913 C 161.994 147.913 160.077 145.996 160.077 143.634 L 160.077 143.634 L 160.077 143.634 L 160.077 143.634 L 160.077 143.634 L 160.077 143.634 Z  M 180.616 179.577 L 180.616 176.154 L 177.193 176.154 L 177.193 179.577 L 132.692 179.577 L 132.692 176.154 L 129.269 176.154 L 129.269 179.577 L 122.468 179.577 C 122.918 170.992 126.769 162.961 133.172 157.176 C 135.934 161.612 139.977 165.105 144.767 167.194 C 145.413 172.24 149.724 176.154 154.942 176.154 C 160.161 176.154 164.472 172.24 165.119 167.194 C 169.91 165.105 173.953 161.612 176.715 157.176 C 183.109 162.93 186.959 170.987 187.417 179.577 L 180.616 179.577 L 180.616 179.577 L 180.616 179.577 L 180.616 179.577 L 180.616 179.577 Z  M 125.846 141.923 C 125.846 139.694 127.282 137.813 129.269 137.103 L 129.269 143.634 C 129.269 144.711 129.358 145.767 129.487 146.809 C 127.331 146.158 125.854 144.175 125.846 141.923 L 125.846 141.923 L 125.846 141.923 L 125.846 141.923 L 125.846 141.923 Z  M 161.268 168.488 C 160.241 170.975 157.796 172.731 154.942 172.731 C 152.089 172.731 149.644 170.975 148.617 168.488 C 150.645 169.003 152.755 169.308 154.942 169.308 C 157.13 169.308 159.24 169.003 161.268 168.488 L 161.268 168.488 L 161.268 168.488 L 161.268 168.488 L 161.268 168.488 Z  M 184.039 141.923 C 184.039 144.232 182.498 146.166 180.398 146.809 C 180.527 145.767 180.616 144.711 180.616 143.634 L 180.616 137.103 C 182.603 137.813 184.039 139.694 184.039 141.923 L 184.039 141.923 L 184.039 141.923 L 184.039 141.923 L 184.039 141.923 Z  M 158.366 97.423 L 160.077 97.423 L 160.077 100.846 L 156.654 100.846 L 156.654 99.134 C 156.654 98.189 157.42 97.423 158.366 97.423 L 158.366 97.423 L 158.366 97.423 L 158.366 97.423 L 158.366 97.423 Z  M 149.808 97.423 L 151.519 97.423 C 152.465 97.423 153.231 98.189 153.231 99.134 L 153.231 100.846 L 149.808 100.846 L 149.808 97.423 L 149.808 97.423 L 149.808 97.423 L 149.808 97.423 L 149.808 97.423 Z  M 127.558 119.673 C 127.558 111.178 134.467 104.269 142.962 104.269 L 166.923 104.269 C 175.418 104.269 182.327 111.178 182.327 119.673 L 182.327 124.807 L 171.053 124.807 L 168.493 122.245 C 167.824 121.576 166.947 121.242 166.068 121.242 C 165.188 121.242 164.311 121.576 163.642 122.245 L 161.077 124.807 L 148.803 124.807 L 145.387 121.389 C 144.047 120.052 141.877 120.052 140.536 121.389 L 137.115 124.807 L 127.558 124.807 L 127.558 119.673 L 127.558 119.673 L 127.558 119.673 L 127.558 119.673 L 127.558 119.673 Z  M 160.077 133.365 L 168.635 133.365 L 168.635 136.788 L 160.077 136.788 L 160.077 133.365 L 160.077 133.365 L 160.077 133.365 Z  M 141.25 133.365 L 149.808 133.365 L 149.808 136.788 L 141.25 136.788 L 141.25 133.365 L 141.25 133.365 Z  M 242.77 105.977 C 253.269 105.977 262.071 112.825 264.399 123.094 L 259.885 123.094 C 258.941 123.094 258.174 122.324 258.174 121.379 L 258.174 117.96 L 254.751 117.96 L 254.751 121.379 C 254.754 124.215 257.05 126.513 259.885 126.517 L 264.933 126.517 C 264.977 126.517 265.02 127.649 265.02 128.226 L 265.02 129.941 L 259.885 129.941 C 255.16 129.931 251.332 126.1 251.328 121.374 L 251.328 117.96 L 247.905 117.96 L 247.905 121.383 C 247.905 126.517 244.066 129.942 239.347 129.942 L 220.52 129.942 L 220.52 128.227 C 220.52 115.957 230.502 105.977 242.77 105.977 L 242.77 105.977 L 242.77 105.977 L 242.77 105.977 L 242.77 105.977 L 242.77 105.977 L 242.77 105.977 L 242.77 105.977 L 242.77 105.977 L 242.77 105.977 L 242.77 105.977 Z  M 223.943 133.364 L 239.347 133.364 C 243.73 133.364 247.561 131.094 249.65 127.574 C 251.752 131.038 255.548 133.364 259.885 133.364 L 261.597 133.364 L 261.597 141.918 C 261.597 152.299 253.15 160.745 242.77 160.745 C 232.389 160.745 223.943 152.299 223.943 141.918 L 223.943 133.364 L 223.943 133.364 L 223.943 133.364 L 223.943 133.364 L 223.943 133.364 L 223.943 133.364 L 223.943 133.364 L 223.943 133.364 L 223.943 133.364 L 223.943 133.364 L 223.943 133.364 Z  M 137.115 128.231 C 138.031 128.231 138.893 127.875 139.54 127.226 L 142.967 123.81 L 146.383 127.226 C 147.03 127.875 147.893 128.231 148.808 128.231 L 161.077 128.231 C 161.992 128.231 162.855 127.875 163.502 127.226 L 166.073 124.665 L 168.633 127.226 C 169.28 127.875 170.143 128.231 171.058 128.231 L 177.193 128.231 L 177.193 143.634 C 177.193 155.903 167.211 165.885 154.942 165.885 C 142.674 165.885 132.692 155.903 132.692 143.634 L 132.692 128.231 L 137.115 128.231 L 137.115 128.231 L 137.115 128.231 L 137.115 128.231 L 137.115 128.231 Z  M 178.387 154.047 C 178.909 152.877 179.335 151.658 179.679 150.402 C 184.03 150.003 187.462 146.376 187.462 141.923 C 187.456 137.858 184.597 134.357 180.616 133.538 L 180.616 128.231 L 182.327 128.231 C 184.215 128.231 185.75 126.695 185.75 124.807 L 185.75 119.673 C 185.75 109.292 177.304 100.846 166.923 100.846 L 163.5 100.846 L 163.5 94 L 158.366 94 C 157.098 94.004 155.878 94.48 154.942 95.335 C 154.007 94.48 152.787 94.004 151.519 94 L 146.385 94 L 146.385 100.846 L 142.962 100.846 C 132.581 100.846 124.135 109.292 124.135 119.673 L 124.135 124.807 C 124.135 126.695 125.67 128.231 127.558 128.231 L 129.269 128.231 L 129.269 133.538 C 125.288 134.357 122.429 137.858 122.423 141.923 C 122.423 146.376 125.855 150.003 130.204 150.402 C 130.548 151.656 130.974 152.877 131.498 154.047 C 123.561 160.873 118.997 170.821 119 181.288 L 119 183 L 190.885 183 L 190.885 181.288 C 190.888 170.821 186.324 160.873 178.387 154.047 L 178.387 154.047 L 178.387 154.047 L 178.387 154.047 L 178.387 154.047 L 178.387 154.047 Z  M 278.712 179.575 C 278.712 169.306 275.055 161.214 268.443 154.46 L 268.443 148.04 C 271.461 146.715 273.578 143.708 273.578 140.208 C 273.578 136.708 271.461 133.701 268.443 132.376 L 268.443 128.227 C 268.443 119.824 264.368 112.825 258.109 107.69 L 258.174 107.69 L 258.174 98.535 C 258.174 97.014 257.328 95.607 255.913 94.772 C 254.189 93.775 252.071 93.743 250.318 94.688 L 246.467 96.808 C 245.399 96.119 244.132 95.706 242.77 95.706 C 241.408 95.706 240.141 96.117 239.073 96.807 L 235.222 94.686 C 233.468 93.744 231.352 93.775 229.627 94.77 C 228.212 95.607 227.366 97.014 227.366 98.535 L 227.366 107.69 L 227.431 107.69 C 221.172 112.825 217.097 119.824 217.097 128.226 L 217.097 132.463 C 214.317 133.713 212.296 136.294 212.001 139.373 C 211.77 141.778 212.562 144.17 214.184 145.962 C 214.997 146.853 215.989 147.563 217.095 148.045 L 217.095 154.462 C 210.483 161.216 206.827 169.306 206.827 179.575 L 203.404 179.575 L 203.404 182.999 L 282.135 182.999 L 282.135 179.575 L 278.712 179.575 L 278.712 179.575 L 278.712 179.575 L 278.712 179.575 L 278.712 179.575 L 278.712 179.575 L 278.712 179.575 L 278.712 179.575 L 278.712 179.575 L 278.712 179.575 L 278.712 179.575 Z  M 149.808 153.904 C 149.808 156.739 152.107 159.038 154.942 159.038 C 157.778 159.038 160.077 156.739 160.077 153.904 L 160.077 152.192 L 149.808 152.192 L 149.808 153.904 Z " fill-rule="evenodd" fill="rgb(37,107,213)"/></g></g></svg>