<?xml version="1.0" standalone="no"?><!-- Generator: Gravit.io --><svg xmlns="http://www.w3.org/2000/svg" xmlns:xlink="http://www.w3.org/1999/xlink" style="isolation:isolate" viewBox="35 143.64 42 36.721" width="42" height="36.721"><g><g><path d=" M 66 153 L 65 153 C 65 153 64 153 64 153 L 63 154 C 64 153 64 153 63 152 L 55 144 L 48 150 L 48 155 L 43 158 L 43 158 C 40 158 38 160 38 163 L 38 163 L 36 163 C 36 163 36 164 36 164 L 36 166 C 36 166 36 166 36 166 L 54 166 C 55 166 55 166 55 166 L 66 154 C 66 154 66 154 66 153 Z " fill="rgb(255,255,255)"/></g><g><path d=" M 58 147 L 57 146 L 57 146 C 50 152 48 163 48 163 L 50 163 L 52 163 L 52 163 C 53 163 54 163 54 163 L 55 162 C 55 158 55 151 58 147 Z " fill="rgb(141,204,204)"/></g><g><path d=" M 53 164 L 38 164 C 37 164 37 164 37 163 L 37 163 C 37 160 40 157 43 157 L 47 155 L 47 150 C 47 149 47 149 48 149 L 55 144 C 55 144 56 144 56 144 L 64 152 C 64 152 64 154 64 154 L 54 164 C 54 164 54 164 53 164 Z  M 38 163 L 53 163 L 63 153 C 63 153 63 153 63 153 L 55 145 L 49 150 L 49 155 C 49 156 49 156 48 156 L 43 159 C 43 159 43 159 43 159 L 43 159 C 41 159 39 161 38 163 Z " fill="rgb(68,64,62)"/></g><g><path d=" M 76 177 L 75 177 L 73 164 L 65 164 L 62 169 L 56 172 L 55 172 C 52 172 49 174 49 177 L 49 177 L 48 177 C 48 177 48 178 48 178 L 48 179 C 48 179 48 180 48 180 L 76 180 C 76 180 76 179 76 179 L 76 178 C 76 178 76 177 76 177 Z " fill="rgb(255,255,255)"/></g><g><path d=" M 54 167 L 36 167 C 36 167 35 166 35 166 L 35 164 C 35 163 36 163 36 163 L 38 163 C 38 163 38 163 38 163 C 38 164 38 164 38 164 L 36 164 L 36 166 L 54 166 L 65 154 L 65 153 L 64 154 C 63 155 63 155 63 154 C 62 154 62 154 63 153 L 64 152 C 64 152 65 152 65 152 L 66 153 C 67 153 67 154 66 155 L 55 167 C 55 167 55 167 54 167 Z " fill="rgb(68,64,62)"/></g><g><path d=" M 59 158 C 59 158 59 158 59 158 C 56 155 56 151 58 148 L 58 148 C 58 148 59 148 59 148 C 59 148 60 149 59 149 L 59 149 C 57 152 58 155 60 157 C 60 157 60 158 60 158 C 60 158 60 158 59 158 Z " fill="rgb(68,64,62)"/></g><g><path d=" M 51 153 C 51 153 51 153 51 153 L 46 153 C 46 153 46 152 46 152 C 46 152 46 151 47 151 L 51 152 C 51 152 52 152 52 153 C 52 153 51 153 51 153 Z " fill="rgb(68,64,62)"/></g><g><path d=" M 51 158 C 50 158 50 158 50 158 L 45 155 C 45 155 45 154 45 154 C 45 154 46 153 46 154 L 51 157 C 51 157 51 158 51 158 C 51 158 51 158 51 158 Z " fill="rgb(68,64,62)"/></g><g><path d=" M 46 161 C 46 161 46 161 46 161 L 43 156 C 43 156 43 156 43 155 C 44 155 44 155 44 156 L 47 160 C 47 160 47 161 47 161 C 47 161 47 161 46 161 Z " fill="rgb(68,64,62)"/></g><g><g><path d=" M 74 169 C 69 170 66 178 66 178 L 60 178 C 60 178 64 170 74 167 L 74 169 Z " fill="rgb(141,204,204)"/></g><g><path d=" M 66 168 C 66 168 66 168 66 168 L 62 166 C 61 166 61 165 61 165 C 61 165 62 164 62 165 L 66 166 C 67 167 67 167 67 167 C 67 168 66 168 66 168 Z " fill="rgb(68,64,62)"/></g><g><path d=" M 64 172 C 64 172 64 172 64 172 L 60 168 C 60 167 60 167 60 167 C 60 166 61 166 61 167 L 65 171 C 65 171 65 172 65 172 C 65 172 65 172 64 172 Z " fill="rgb(68,64,62)"/></g><g><path d=" M 60 174 C 59 174 59 174 59 173 L 58 169 C 58 168 58 168 58 168 C 59 168 59 168 59 168 L 60 173 C 61 173 60 174 60 174 C 60 174 60 174 60 174 Z " fill="rgb(68,64,62)"/></g><g><path d=" M 75 178 L 49 178 C 49 178 48 178 48 177 L 48 177 C 48 174 51 171 55 171 L 56 171 L 62 168 L 64 163 C 64 163 64 163 65 163 L 73 163 C 73 163 74 163 74 164 L 76 177 C 76 178 76 178 76 178 C 76 178 76 178 75 178 Z  M 50 177 L 75 177 L 72 164 L 65 164 L 63 169 C 63 169 63 169 63 170 L 56 172 C 56 172 56 172 56 172 L 55 172 C 52 172 50 174 50 177 Z " fill="rgb(68,64,62)"/></g><g><path d=" M 76 180 L 48 180 C 48 180 47 180 47 179 L 47 178 C 47 177 48 177 48 177 L 76 177 C 76 177 77 177 77 178 L 77 179 C 77 180 76 180 76 180 Z  M 48 179 L 76 179 L 76 178 L 48 178 L 48 179 Z " fill="rgb(68,64,62)"/></g><g><path d=" M 69 178 C 69 178 69 178 69 177 C 68 173 71 171 74 170 C 74 170 74 170 75 170 C 75 171 75 171 74 171 C 71 173 70 174 70 177 C 70 178 70 178 69 178 C 69 178 69 178 69 178 Z " fill="rgb(68,64,62)"/></g></g></g></svg>