<?xml version="1.0" standalone="no"?><!-- Generator: Gravit.io --><svg xmlns="http://www.w3.org/2000/svg" xmlns:xlink="http://www.w3.org/1999/xlink" style="isolation:isolate" viewBox="130.748 66 145 145" width="145" height="145"><defs><clipPath id="_clipPath_ODt69P1J2ZQmFOENpTog7wKV3mcW5eOP"><rect width="560" height="315"/></clipPath></defs><g clip-path="url(#_clipPath_ODt69P1J2ZQmFOENpTog7wKV3mcW5eOP)"><g><circle vector-effect="non-scaling-stroke" cx="203.24823773948344" cy="138.5" r="72.5" fill="rgb(249,255,215)"/><path d=" M 232.232 88.982 C 228.608 89.428 225.012 90.46 221.556 91.993 C 222.329 94.971 222.338 98.096 221.584 101.079 L 225.403 104.898 L 219.995 110.334 L 217.932 108.271 C 217.57 108.689 217.208 109.107 216.818 109.497 C 216.429 109.891 216.02 110.263 215.591 110.612 L 217.654 112.675 L 212.19 118.11 L 208.372 114.292 C 205.389 115.048 202.263 115.038 199.285 114.264 C 197.752 117.72 196.721 121.316 196.275 124.912 C 194.296 139.935 188.247 153.287 185.097 159.419 C 181.467 158.167 177.441 159.098 174.728 161.816 L 160.094 176.45 C 158.206 178.331 157.151 180.892 157.168 183.558 C 157.157 186.223 158.21 188.781 160.094 190.666 C 161.979 192.55 164.538 193.604 167.202 193.592 C 169.878 193.592 172.415 192.561 174.31 190.666 L 188.944 176.032 C 190.839 174.137 191.871 171.628 191.871 168.924 C 191.871 167.781 191.675 166.694 191.313 165.635 C 197.417 162.513 210.769 156.437 225.821 154.458 C 234.406 153.398 242.852 149.078 249.625 142.333 C 256.398 135.559 260.691 127.114 261.75 118.501 C 262.837 109.609 260.356 101.609 254.754 95.979 C 249.123 90.376 241.123 87.867 232.232 88.982 L 232.232 88.982 Z  M 239.423 95.616 C 242.991 96.118 246.196 97.456 248.761 99.574 L 244.58 103.755 L 237.918 97.094 L 239.423 95.616 L 239.423 95.616 Z  M 231.368 121.706 L 236.803 116.271 L 243.465 122.932 L 238.029 128.368 L 231.368 121.706 Z  M 235.66 130.737 L 230.225 136.172 L 223.563 129.511 L 228.998 124.075 L 235.66 130.737 Z  M 239.172 113.929 L 244.608 108.494 L 251.269 115.156 L 245.834 120.591 L 239.172 113.929 Z  M 242.21 106.125 L 236.803 111.56 L 230.141 104.898 L 235.577 99.463 L 242.21 106.125 L 242.21 106.125 Z  M 223.647 98.404 C 226.322 97.149 229.082 96.257 231.897 95.811 L 233.235 97.149 L 227.8 102.585 L 223.647 98.404 L 223.647 98.404 Z  M 227.772 107.267 L 234.434 113.929 L 228.998 119.365 L 222.337 112.703 L 227.772 107.267 Z  M 219.995 115.044 L 226.657 121.706 L 221.222 127.141 L 214.56 120.48 L 219.995 115.044 L 219.995 115.044 Z  M 218.852 129.511 L 213.417 134.946 L 206.755 128.284 L 212.19 122.849 L 218.852 129.511 Z  M 205.696 116.326 L 209.849 120.48 L 204.414 125.915 L 203.076 124.577 C 203.55 121.79 204.442 119.002 205.696 116.326 L 205.696 116.326 Z  M 204.414 130.626 L 211.076 137.287 L 206.894 141.469 C 204.776 138.876 203.438 135.699 202.936 132.131 L 204.414 130.626 Z  M 193.682 157.022 C 195.869 152.196 197.74 147.233 199.285 142.165 C 200.367 144.095 201.708 145.867 203.271 147.433 C 204.86 149.022 206.616 150.332 208.539 151.419 C 202.769 153.175 197.696 155.238 193.682 157.022 Z  M 218.601 147.796 C 215.034 147.294 211.828 145.956 209.264 143.838 L 213.445 139.657 L 220.107 146.319 L 218.601 147.796 Z  M 215.814 137.287 L 221.249 131.852 L 227.911 138.514 L 222.476 143.949 L 215.814 137.287 Z  M 226.155 147.629 L 224.817 146.291 L 230.253 140.855 L 234.406 145.008 C 231.702 146.291 228.943 147.183 226.155 147.629 L 226.155 147.629 Z  M 237.472 143.392 L 232.594 138.514 L 238.029 133.079 L 243.66 138.709 C 241.737 140.521 239.646 142.082 237.472 143.392 Z  M 246.029 136.368 L 240.399 130.737 L 245.834 125.302 L 250.712 130.18 C 249.374 132.354 247.841 134.416 246.029 136.368 Z  M 252.329 127.086 L 248.175 122.932 L 253.611 117.497 L 254.949 118.835 C 254.475 121.65 253.583 124.41 252.329 127.086 L 252.329 127.086 Z  M 253.611 112.786 L 246.949 106.125 L 251.13 101.944 C 253.248 104.536 254.586 107.713 255.088 111.281 L 253.611 112.786 Z  M 210.016 84.913 C 209.821 84.885 209.654 84.885 209.459 84.885 C 207.814 84.885 206.253 85.526 205.083 86.697 C 202.686 89.094 202.686 93.024 205.083 95.449 C 206.894 97.261 207.87 99.63 207.87 102.194 C 207.867 105.213 206.441 108.053 204.023 109.86 C 207.508 109.832 210.769 108.466 213.222 105.985 C 215.703 103.504 217.096 100.188 217.096 96.648 C 217.096 93.135 215.73 89.818 213.222 87.31 C 212.302 86.334 211.215 85.526 210.016 84.913 Z  M 202.741 84.327 C 203.076 83.993 203.41 83.686 203.8 83.408 C 200.316 83.435 197.055 84.801 194.602 87.282 C 191.63 90.256 190.252 94.467 190.89 98.623 C 191.529 102.779 194.108 106.382 197.836 108.327 C 199.664 108.497 201.473 107.843 202.769 106.543 C 203.94 105.372 204.581 103.811 204.581 102.167 C 204.581 100.522 203.94 98.961 202.769 97.79 C 200.979 96.01 199.969 93.59 199.964 91.065 C 199.959 88.539 200.958 86.116 202.741 84.327 L 202.741 84.327 Z " fill="rgb(76,56,79)"/></g></g></svg>