<?xml version="1.0" standalone="no"?><!-- Generator: Gravit.io --><svg xmlns="http://www.w3.org/2000/svg" xmlns:xlink="http://www.w3.org/1999/xlink" style="isolation:isolate" viewBox="0 196 375 616" width="375" height="616"><defs><clipPath id="_clipPath_4413v2wQVnZe3u9oX7fwgDIGSso4XLEr"><rect width="375" height="812"/></clipPath></defs><g clip-path="url(#_clipPath_4413v2wQVnZe3u9oX7fwgDIGSso4XLEr)"><rect x="0" y="196" width="375" height="616" transform="matrix(1,0,0,1,0,0)" fill="rgb(255,255,255)"/><clipPath id="_clipPath_SdFUE8ITtJxAfrDP6jSPYxI0oHvaZvZc"><rect x="0" y="196" width="375" height="616" transform="matrix(1,0,0,1,0,0)" fill="rgb(255,255,255)"/></clipPath><g clip-path="url(#_clipPath_SdFUE8ITtJxAfrDP6jSPYxI0oHvaZvZc)"><path d=" M 284.633 251.622 C 253.971 246.018 221.339 243 187.5 243 C 8.955 243 -136 327.016 -136 430.5 L -136 430.5 L -136 946 L 511 946 L 511 430.5 L 511 430.5 C 511 356.995 437.866 293.313 331.511 262.582 C 326.915 251.942 316.32 244.5 304 244.5 C 296.615 244.5 289.849 247.174 284.633 251.622 L 284.633 251.622 Z  M 254 220 C 254 211.721 260.721 205 269 205 C 277.279 205 284 211.721 284 220 C 284 228.279 277.279 235 269 235 C 260.721 235 254 228.279 254 220 L 254 220 Z  M 305 215.5 C 305 209.705 309.705 205 315.5 205 C 321.295 205 326 209.705 326 215.5 C 326 221.295 321.295 226 315.5 226 C 309.705 226 305 221.295 305 215.5 Z " fill-rule="evenodd" fill="rgb(4,138,129)"/></g><g transform="matrix(1,0,0,1,97.5,70.063)"><text transform="matrix(1,0,0,1,0.305,14.844)" style="font-family:'Roboto Black';font-weight:400;font-size:16px;font-style:normal;fill:#464646;stroke:none;">HAI SA NE CUNOASTEM</text></g><g transform="matrix(1,0,0,1,54.25,110.297)"><text transform="matrix(1,0,0,1,18.446,12.061)" style="font-family:'Roboto Light';font-weight:400;font-size:13px;font-style:normal;fill:#464646;stroke:none;">Lorem ipsum dolor sit amet consectetur </text><text transform="matrix(1,0,0,1,25.565,27.295)" style="font-family:'Roboto Light';font-weight:400;font-size:13px;font-style:normal;fill:#464646;stroke:none;">adipisicing elit. Adipisci, culpa dolores </text><text transform="matrix(1,0,0,1,17.386,42.529)" style="font-family:'Roboto Light';font-weight:400;font-size:13px;font-style:normal;fill:#464646;stroke:none;">architecto ipsam repellendus sequi quod</text></g></g></svg>