<?xml version="1.0" encoding="utf-8"?>
<!-- Generator: Adobe Illustrator 21.0.0, SVG Export Plug-In . SVG Version: 6.00 Build 0)  -->
<svg version="1.1" id="Layer_1" xmlns="http://www.w3.org/2000/svg" xmlns:xlink="http://www.w3.org/1999/xlink" x="0px" y="0px"
	 viewBox="0 0 595.3 595.3" style="enable-background:new 0 0 595.3 595.3;" xml:space="preserve">
<style type="text/css">
	.st0{fill:#FFCCCC;}
	.st1{fill:#700000;}
	.st2{fill:#991F1F;}
	.st3{fill:#FFFFFF;}
	.st4{fill:#FF7373;}
</style>
<g>
	<circle class="st0" cx="297.6" cy="297.6" r="161"/>
	<g>
		<path class="st1" d="M441.7,415c-11.6-15.2-28.4-24.4-57.3-31.2V224.1c0-67.7-47.1-98.2-80.6-98.2c-24.7,0-35.8,8.3-39.9,12.7
			c-6.2-2.1-21-4.5-35.1,12.3c-12.3,14.7-18.4,39.2-18.4,74.8c-0.5,3.4-0.3,7.1,0,10.8v147.4c-28.7,6.8-45.3,15.9-56.9,31.1
			c-10.6,13.9-7.8,49.5-7.7,51c0.2,1.9,1.8,3.4,3.7,3.4h296.1c1.9,0,3.5-1.5,3.7-3.4C449.5,464.5,452.3,428.9,441.7,415z
			 M234.6,155.6c14.3-17,28.2-9.7,28.8-9.4c1.8,1,4,0.4,5-1.4c0.1-0.1,7.3-11.6,35.5-11.6c30.4,0,73.1,28.2,73.1,90.8v158
			c-23.1-5.3-33-8.3-36.9-16.9c-7.4-16.2-10.1-38.7-0.4-48.3c0.3-0.3,0.5-0.6,0.6-1c3.4-3,6.6-6.4,9.5-10.6l0.5-0.8
			c2.9-4.1,6.4-9.3,9.8-16.3c0,0,0-0.1,0-0.1c0,0,0,0,0,0c8.8-19.7,7.1-44.5-4.1-61.9c-10-15.4-26.4-23.8-46.2-23.8
			c-33.5,0-37.7-27.7-37.8-28.9c-0.2-1.8-1.8-3.2-3.6-3.2c-1.8-0.2-3.4,1.2-3.8,3c-0.1,0.4-7.3,37.9-35.5,37.9
			c-4.6,0-8.1,0.8-11,2.4C219.4,186.2,224.8,167.3,234.6,155.6z M267.8,324.5c14.1,7,27.6,7.4,29.8,7.4s15.7-0.3,29.8-7.4
			c-3.6,14.2,0.7,32.4,5.9,43.7c0.5,1.1,1.1,2,1.7,2.9c-2.8,4.2-12.6,15.3-37.6,15.3c-25.2,0-34.6-11-37.3-15.2
			c0.6-0.9,1.3-1.9,1.7-2.9C267.1,356.9,271.4,338.7,267.8,324.5z M251.5,301l-0.5-0.8c-7.2-10.5-19.3-28.1-19.3-65.7
			c0-5.7,0.3-11.1,0.9-16.3c20.7-1.8,31.2-19.9,35.9-32.3c5.1,10.3,16.5,23.7,41.3,23.7c22.1,0,34,11.1,40,20.4
			c10,15.3,11.4,37.4,3.6,54.8c0,0,0,0,0,0c-3.1,6.5-6.5,11.3-9.2,15.3l-0.5,0.8c-15.9,23.1-44.9,23.4-46.1,23.4
			C296.4,324.4,267.4,324.2,251.5,301z M297.5,393.8c25.9,0,37.9-10.8,42.7-17c3.2,2.6,7.4,4.6,12.4,6.4
			c-2.3,10.3-13.1,44.4-54.9,60c-41.9-15.6-52.6-49.7-55-60c5-1.8,9.2-3.8,12.4-6.4C259.8,383.1,271.6,393.8,297.5,393.8z
			 M217.9,226.4c0.3-2.3,1-4.1,2.1-5.2c1.1-1.2,2.8-2,5.1-2.4c-0.5,5-0.8,10.2-0.8,15.7c0,7.9,0.5,15,1.4,21.4
			c-3.3-3.7-6.8-9.6-7.7-18.6c0-0.4-0.1-0.8-0.1-1.2V226.4z M217.9,258c3.6,5,7.6,7.8,9.8,9c4.4,18.7,11.9,29.8,17.2,37.4l0.5,0.8
			c2.9,4.2,6.1,7.7,9.5,10.6c0.2,0.3,0.4,0.7,0.6,1c9.6,9.6,7,32.1-0.4,48.3c-3.9,8.6-13.9,11.6-37.3,17V258z M153.1,462
			c-0.6-11.4-0.2-33.8,6.4-42.5c0.6-0.8,1.3-1.6,2-2.4l27.2,44.9H153.1z M197.3,462l-30.6-50.4c10.5-9.6,25.1-15.9,48.3-21.1
			c7.9-1.8,14.7-3.4,20.6-5c2.9,12.3,15.2,48.9,60.8,65.2c0.4,0.1,0.8,0.2,1.2,0.2s0.8-0.1,1.2-0.2c45.6-16.3,57.9-52.9,60.8-65.2
			c5.6,1.6,12.1,3.1,19.5,4.8c0.3,0.1,0.7,0.2,1.1,0.2c23.2,5.2,37.7,11.5,48.2,21.1L397.9,462H197.3z M442.2,462h-35.6l27.2-44.9
			c0.7,0.8,1.3,1.6,2,2.4C442.4,428.2,442.8,450.6,442.2,462z"/>
		<path class="st2" d="M234.6,155.6c14.3-17,28.2-9.7,28.8-9.4c1.8,1,4,0.4,5-1.4c0.1-0.1,7.3-11.6,35.5-11.6
			c30.4,0,73.1,28.2,73.1,90.8v158c-23.1-5.3-33-8.3-36.9-16.9c-7.4-16.2-10.1-38.7-0.4-48.3c0.3-0.3,0.5-0.6,0.6-1
			c3.4-3,6.6-6.4,9.5-10.6l0.5-0.8c2.9-4.1,6.4-9.3,9.8-16.3c0,0,0-0.1,0-0.1c0,0,0,0,0,0c8.8-19.7,7.1-44.5-4.1-61.9
			c-10-15.4-26.4-23.8-46.2-23.8c-33.5,0-37.7-27.7-37.8-28.9c-0.2-1.8-1.8-3.2-3.6-3.2c-1.8-0.2-3.4,1.2-3.8,3
			c-0.1,0.4-7.3,37.9-35.5,37.9c-4.6,0-8.1,0.8-11,2.4C219.4,186.2,224.8,167.3,234.6,155.6z"/>
		<path class="st3" d="M267.8,324.5c14.1,7,27.6,7.4,29.8,7.4s15.7-0.3,29.8-7.4c-3.6,14.2,0.7,32.4,5.9,43.7c0.5,1.1,1.1,2,1.7,2.9
			c-2.8,4.2-12.6,15.3-37.6,15.3c-25.2,0-34.6-11-37.3-15.2c0.6-0.9,1.3-1.9,1.7-2.9C267.1,356.9,271.4,338.7,267.8,324.5z"/>
		<path class="st3" d="M251.5,301l-0.5-0.8c-7.2-10.5-19.3-28.1-19.3-65.7c0-5.7,0.3-11.1,0.9-16.3c20.7-1.8,31.2-19.9,35.9-32.3
			c5.1,10.3,16.5,23.7,41.3,23.7c22.1,0,34,11.1,40,20.4c10,15.3,11.4,37.4,3.6,54.8c0,0,0,0,0,0c-3.1,6.5-6.5,11.3-9.2,15.3
			l-0.5,0.8c-15.9,23.1-44.9,23.4-46.1,23.4C296.4,324.4,267.4,324.2,251.5,301z"/>
		<path class="st3" d="M297.5,393.8c25.9,0,37.9-10.8,42.7-17c3.2,2.6,7.4,4.6,12.4,6.4c-2.3,10.3-13.1,44.4-54.9,60
			c-41.9-15.6-52.6-49.7-55-60c5-1.8,9.2-3.8,12.4-6.4C259.8,383.1,271.6,393.8,297.5,393.8z"/>
		<path class="st1" d="M297.6,386.4c-6.5,0-11.7,5.3-11.7,11.7c0,6.5,5.3,11.7,11.7,11.7c6.5,0,11.7-5.3,11.7-11.7
			C309.3,391.7,304.1,386.4,297.6,386.4z M297.6,402.5c-2.4,0-4.3-1.9-4.3-4.3c0-2.4,1.9-4.3,4.3-4.3c2.4,0,4.3,1.9,4.3,4.3
			C301.9,400.5,300,402.5,297.6,402.5z"/>
		<ellipse class="st3" cx="297.6" cy="398.1" rx="4.3" ry="4.3"/>
		<path class="st3" d="M217.9,226.4c0.3-2.3,1-4.1,2.1-5.2c1.1-1.2,2.8-2,5.1-2.4c-0.5,5-0.8,10.2-0.8,15.7c0,7.9,0.5,15,1.4,21.4
			c-3.3-3.7-6.8-9.6-7.7-18.6c0-0.4-0.1-0.8-0.1-1.2V226.4z"/>
		<path class="st2" d="M217.9,258c3.6,5,7.6,7.8,9.8,9c4.4,18.7,11.9,29.8,17.2,37.4l0.5,0.8c2.9,4.2,6.1,7.7,9.5,10.6
			c0.2,0.3,0.4,0.7,0.6,1c9.6,9.6,7,32.1-0.4,48.3c-3.9,8.6-13.9,11.6-37.3,17V258z"/>
		<path class="st3" d="M153.1,462c-0.6-11.4-0.2-33.8,6.4-42.5c0.6-0.8,1.3-1.6,2-2.4l27.2,44.9H153.1z"/>
		<path class="st4" d="M197.3,462l-30.6-50.4c10.5-9.6,25.1-15.9,48.3-21.1c7.9-1.8,14.7-3.4,20.6-5c2.9,12.3,15.2,48.9,60.8,65.2
			c0.4,0.1,0.8,0.2,1.2,0.2s0.8-0.1,1.2-0.2c45.6-16.3,57.9-52.9,60.8-65.2c5.6,1.6,12.1,3.1,19.5,4.8c0.3,0.1,0.7,0.2,1.1,0.2
			c23.2,5.2,37.7,11.5,48.2,21.1L397.9,462H197.3z"/>
		<path class="st3" d="M442.2,462h-35.6l27.2-44.9c0.7,0.8,1.3,1.6,2,2.4C442.4,428.2,442.8,450.6,442.2,462z"/>
		<g>
			<path class="st1" d="M295.1,285.6c-2,0-3.7-1.7-3.7-3.7v-37.6c0-2,1.7-3.7,3.7-3.7c2,0,3.7,1.7,3.7,3.7v37.6
				C298.8,284,297.1,285.6,295.1,285.6z"/>
		</g>
	</g>
</g>
</svg>
