<?xml version="1.0" encoding="UTF-8" standalone="no"?><!-- Generator: Gravit.io --><svg xmlns="http://www.w3.org/2000/svg" xmlns:xlink="http://www.w3.org/1999/xlink" style="isolation:isolate" viewBox="2.89 1.5 16.11 21.5" width="16.11pt" height="21.5pt"><path d=" M 13.5 5.5 C 14.59 5.5 15.5 4.58 15.5 3.5 C 15.5 2.38 14.59 1.5 13.5 1.5 C 12.39 1.5 11.5 2.38 11.5 3.5 C 11.5 4.58 12.39 5.5 13.5 5.5 Z  M 9.89 19.38 L 10.89 15 L 13 17 L 13 23 L 15 23 L 15 15.5 L 12.89 13.5 L 13.5 10.5 C 14.79 12 16.79 13 19 13 L 19 11 C 17.09 11 15.5 10 14.69 8.58 L 13.69 7 C 13.29 6.38 12.69 6 12 6 C 11.69 6 11.5 6.08 11.19 6.08 L 6 8.28 L 6 13 L 8 13 L 8 9.58 L 9.79 8.88 L 8.19 17 L 3.29 16 L 2.89 18 L 9.89 19.38 L 9.89 19.38 Z " fill="rgb(6,167,125)"/></svg>