<?xml version="1.0" encoding="UTF-8" standalone="no"?><!-- Generator: Gravit.io --><svg xmlns="http://www.w3.org/2000/svg" xmlns:xlink="http://www.w3.org/1999/xlink" style="isolation:isolate" viewBox="2 2 20 20" width="20pt" height="20pt"><path d=" M 12 2 C 6.477 2 2 6.477 2 12 C 2 17.523 6.477 22 12 22 C 17.523 22 22 17.523 22 12 C 22 6.477 17.523 2 12 2 Z  M 12 3 C 13.76 3 15.4 3.53 16.78 4.41 L 16.5 5 L 13 5 L 12 5 L 10.28 4.16 L 10.63 3.13 C 11.08 3.05 11.53 3 12 3 Z  M 9.53 3.38 L 9.19 4.41 L 6.63 5.69 L 5.38 5.94 C 6.5 4.73 7.92 3.84 9.53 3.38 Z  M 13 6 L 16 6 L 18.69 9.59 L 17.44 12.16 L 14.81 12.78 L 11.53 8.94 L 13 6 Z  M 6.16 6.66 L 7 10 L 5.78 13.06 L 3.22 13.94 C 3.08 13.31 3 12.67 3 12 C 3 10.1 3.59 8.36 4.59 6.91 L 6.16 6.66 Z  M 20.56 9.22 C 20.85 10.09 21 11.03 21 12 C 21 13.44 20.63 14.79 20.03 16 L 19 16 L 18.16 12.66 L 19.66 9.66 L 20.56 9.22 Z  M 8 10 L 11 10 L 13.81 13.28 L 12 16 L 8.84 16.78 L 6.53 13.69 L 8 10 Z  M 12 17 L 15 19 L 14.13 20.72 C 13.44 20.88 12.73 21 12 21 C 10.25 21 8.63 20.5 7.25 19.63 L 8.41 17.91 L 12 17 Z  M 19 17 L 19.5 17 C 18.5 18.5 17 19.67 15.31 20.34 L 16 19 L 19 17 L 19 17 Z " fill="rgb(219,173,106)"/></svg>