<?xml version="1.0" encoding="UTF-8" standalone="no"?><!-- Generator: Gravit.io --><svg xmlns="http://www.w3.org/2000/svg" xmlns:xlink="http://www.w3.org/1999/xlink" style="isolation:isolate" viewBox="5.5 1 12.991 22.93" width="12.991pt" height="22.93pt"><path d=" M 15.83 10.43 C 17.217 11.526 18.133 13.111 18.39 14.86 C 18.672 16.463 18.355 18.115 17.5 19.5 L 15.78 18.5 C 16.215 17.739 16.443 16.877 16.44 16 C 16.418 14.943 16.077 13.918 15.46 13.06 L 9.18 23.93 L 7.44 22.95 L 10.44 17.75 L 8.71 16.76 L 7.21 19.34 L 5.5 18.36 L 10.63 9.45 C 9.608 8.351 8.966 6.952 8.8 5.46 C 8.608 3.948 8.921 2.415 9.69 1.1 L 11.43 2.13 C 10.749 3.263 10.561 4.625 10.91 5.9 C 11.22 7.187 12.054 8.285 13.21 8.93 M 16 5 C 14.895 5 14 5.895 14 7 C 14 8.105 14.895 9 16 9 C 17.105 9 18 8.105 18 7 C 18 5.895 17.105 5 16 5 Z  M 13.5 1 C 12.672 1 12 1.672 12 2.5 C 12 3.328 12.672 4 13.5 4 C 14.328 4 15 3.328 15 2.5 C 15 1.672 14.328 1 13.5 1 Z " fill="rgb(0,159,183)"/></svg>