<?xml version="1.0" encoding="UTF-8" standalone="no"?><!-- Generator: Gravit.io --><svg xmlns="http://www.w3.org/2000/svg" xmlns:xlink="http://www.w3.org/1999/xlink" style="isolation:isolate" viewBox="3 3 19 18" width="19pt" height="18pt"><path d=" M 21.1 16.5 C 20.36 16.17 19.5 16.5 19.19 17.26 C 19.06 17.58 18.8 17.87 18.5 18 L 3 18 L 3 21 L 17.97 21 C 19.68 21 21.22 20 21.88 18.41 C 22.2 17.67 21.86 16.81 21.1 16.5 Z  M 19 15 C 19 15 19 16 17 16 C 15 16 4 16 4 16 L 4 3 L 11 3 L 11.21 4.5 L 9.24 4.5 L 9.24 6 L 11.43 6 L 11.64 7.5 L 9.24 7.5 L 9.24 9 L 11.86 9 L 12 10 L 14 10 C 14 10 19 10 19 15 Z " fill="rgb(187,89,135)"/></svg>