<?xml version="1.0" encoding="UTF-8" standalone="no"?><!-- Generator: Gravit.io --><svg xmlns="http://www.w3.org/2000/svg" xmlns:xlink="http://www.w3.org/1999/xlink" style="isolation:isolate" viewBox="4 3 15 19" width="15pt" height="19pt"><path d=" M 19 15 C 19 15 19 16 17 16 C 15 16 4 16 4 16 L 4 3 L 11 3 L 11.21 4.5 L 9.24 4.5 L 9.24 6 L 11.43 6 L 11.64 7.5 L 9.24 7.5 L 9.24 9 L 11.86 9 L 12 10 L 14 10 C 14 10 19 10 19 15 Z  M 6.5 17 C 5.119 17 4 18.119 4 19.5 C 4 20.881 5.119 22 6.5 22 C 7.881 22 9 20.881 9 19.5 C 9 18.119 7.881 17 6.5 17 Z  M 16.5 17 C 15.119 17 14 18.119 14 19.5 C 14 20.881 15.119 22 16.5 22 C 17.881 22 19 20.881 19 19.5 C 19 18.119 17.881 17 16.5 17 Z " fill="rgb(168,60,36)"/></svg>