<?xml version="1.0" encoding="UTF-8" standalone="no"?><!-- Generator: Gravit.io --><svg xmlns="http://www.w3.org/2000/svg" xmlns:xlink="http://www.w3.org/1999/xlink" style="isolation:isolate" viewBox="5 2 14 20" width="14pt" height="20pt"><path d=" M 19 22 L 5 22 L 5 20 L 19 20 L 19 22 Z  M 13 2 L 13 2 C 11.75 2 10.58 2.62 9.89 3.66 L 7 8 L 9 10 L 11.06 8.63 C 11.5 8.32 12.14 8.44 12.45 8.9 C 12.47 8.93 12.5 8.96 12.5 9 L 12.5 9 C 12.8 9.59 12.69 10.3 12.22 10.77 L 7.42 15.57 C 6.87 16.13 6.87 17.03 7.43 17.58 C 7.69 17.84 8.05 18 8.42 18 L 17 18 L 17 6 C 17 3.791 15.209 2 13 2 Z " fill="rgb(187,197,170)"/></svg>