<?xml version="1.0" encoding="UTF-8" standalone="no"?><!-- Generator: Gravit.io --><svg xmlns="http://www.w3.org/2000/svg" xmlns:xlink="http://www.w3.org/1999/xlink" style="isolation:isolate" viewBox="0.004 0 511.971 511.9" width="511.971pt" height="511.9pt"><path d=" M 432 96 C 458.5 96 480 74.5 480 48 C 480 21.5 458.5 0 432 0 C 405.5 0 384 21.5 384 48 C 384 74.5 405.5 96 432 96 Z  M 505 452.1 C 495.6 442.7 480.4 442.7 471.1 452.1 C 459 464.2 440.6 467.5 426 460.8 L 290.2 390.6 L 339.4 316.8 C 352.1 297.8 349.6 272.3 333.4 256.2 L 293 215.7 L 186 162.6 C 183.1 182.5 189.4 202.6 203.7 217 L 278.8 292.2 L 232.9 361 L 35 258.7 C 23.3 252.7 8.8 257.2 2.7 269 C -3.4 280.8 1.2 295.3 13 301.3 L 404.9 503.8 C 416.8 509.3 429.4 511.9 442 511.9 C 465.2 511.9 488 502.9 505 485.9 C 514.3 476.6 514.3 461.4 505 452.1 Z  M 120 91.6 L 108.5 114.1 C 122.9 121.4 139.7 119 151.3 109.3 L 198.5 132.7 C 198.4 132.8 198.4 132.9 198.3 133 L 312.8 189.8 L 345.2 176.8 L 351.6 195.9 C 355.6 208 364.2 217.9 375.6 223.6 L 433.7 252.6 C 449.6 260.5 468.7 254.1 476.6 238.3 C 484.5 222.5 478.1 203.3 462.3 195.4 L 410.2 169.3 L 393.1 118.1 C 385 93.9 352.2 61.5 308.6 78.9 L 227.4 111.4 L 164.9 80.4 C 165.2 65.9 157.7 51.8 144 44.8 L 132.9 66.5 L 132.7 66.5 L 98.3 59.5 C 96.5 59.1 94.6 59.7 93.3 61.2 C 91.4 63.4 91.6 66.7 93.8 68.6 L 120 91.6 L 120 91.6 Z " fill="rgb(62,87,125)"/></svg>