<?xml version="1.0" encoding="UTF-8" standalone="no"?><!-- Generator: Gravit.io --><svg xmlns="http://www.w3.org/2000/svg" xmlns:xlink="http://www.w3.org/1999/xlink" style="isolation:isolate" viewBox="0.147 0 511.871 512" width="511.871pt" height="512pt"><path d=" M 432 96 C 458.5 96 480 74.5 480 48 C 480 21.5 458.5 0 432 0 C 405.5 0 384 21.5 384 48 C 384 74.5 405.5 96 432 96 Z  M 460.8 249.6 C 466.6 253.9 473.3 256 480 256 C 489.7 256 499.3 251.6 505.6 243.2 C 516.2 229.1 513.4 209 499.2 198.4 L 387.8 114.9 C 374 104.6 358.7 96.5 342.4 91.1 L 278.7 69.9 L 252.6 17.8 C 244.7 2 225.5 -4.4 209.7 3.5 C 193.9 11.4 187.5 30.6 195.4 46.4 L 224.5 104.5 C 230.2 115.9 240.1 124.4 252.2 128.5 L 268.6 134 L 227.4 154.6 C 205.6 165.5 192 187.4 192 211.8 L 192 264.9 L 117.9 289.6 C 101.1 295.2 92.1 313.3 97.7 330.1 C 99.4 335.3 102.6 339.5 106.4 343 L 67.7 328.9 C 58 325.4 50.3 318.3 45.9 308.9 C 40.3 296.9 26 291.7 14 297.3 C 2 302.9 -3.2 317.2 2.4 329.2 C 12.2 350.2 29.5 366.1 51.3 374 L 416.1 506.7 C 425.8 510.2 435.8 512 445.8 512 C 458.3 512 470.7 509.3 482.3 503.8 C 494.3 498.2 499.5 483.9 493.9 471.9 C 488.3 459.9 474 454.7 462 460.3 C 452.7 464.7 442.2 465.1 432.5 461.6 L 341.7 428.5 C 350.4 424.4 357.3 416.7 359.5 406.6 L 381.4 304.6 C 385.3 286.4 378.2 267.4 363.3 256.2 L 311.3 217.2 L 377.3 186.7 L 460.8 249.6 L 460.8 249.6 Z  M 316.4 301.3 L 296.7 393.3 C 295.2 400.4 296.6 407.2 299.5 413.3 L 130.1 351.7 C 132.8 351.5 135.5 351.3 138.1 350.4 L 223.1 322 C 242.7 315.5 255.9 297.2 255.9 276.5 L 255.9 256 L 316.4 301.3 L 316.4 301.3 Z " fill="rgb(110,48,147)"/></svg>