<?xml version="1.0" encoding="UTF-8" standalone="no"?><!-- Generator: Gravit.io --><svg xmlns="http://www.w3.org/2000/svg" xmlns:xlink="http://www.w3.org/1999/xlink" style="isolation:isolate" viewBox="3 1 18 22" width="18pt" height="22pt"><path d=" M 18.5 16 C 19.9 16 21 17.1 21 18.5 C 21 19.9 19.9 21 18.5 21 C 17.1 21 16 19.9 16 18.5 C 16 17.1 17.1 16 18.5 16 Z  M 10.5 1 C 3 1 3 3.7 3 9.8 C 3 13.2 6.4 16.9 9 18.1 L 9 23 L 12 23 L 12 18.1 C 14.6 16.9 18 13.2 18 9.8 C 18 3.6 18 1 10.5 1 Z  M 15.4 4.2 C 15.7 4.6 15.8 5.2 15.9 6 L 15 6 L 15 3.8 C 15.2 3.9 15.3 4.1 15.4 4.2 Z  M 16 9.8 C 16 9.9 16 10 16 10 L 15 10 L 15 7 L 16 7 C 16 7.8 16 8.7 16 9.8 Z  M 14 14 L 11 14 L 11 11 L 14 11 L 14 14 Z  M 7 14 L 7 11 L 10 11 L 10 14 L 7 14 Z  M 5 9.8 C 5 8.8 5 7.9 5 7 L 6 7 L 6 10 L 5 10 C 5 9.9 5 9.8 5 9.8 Z  M 7 7 L 10 7 L 10 10 L 7 10 L 7 7 Z  M 11 3 C 12.4 3 13.4 3.2 14 3.3 L 14 6 L 11 6 L 11 3 Z  M 10 6 L 7 6 L 7 3.4 C 7.6 3.2 8.6 3 10 3 L 10 6 Z  M 11 10 L 11 7 L 14 7 L 14 10 L 11 10 Z  M 6 3.8 L 6 6 L 5.1 6 C 5.2 5.2 5.3 4.6 5.6 4.2 C 5.7 4.1 5.8 4 6 3.8 Z  M 5.2 11 L 6 11 L 6 12.7 C 5.7 12.1 5.4 11.6 5.2 11 Z  M 8 15 L 10 15 L 10 16.3 L 9.8 16.2 C 9.2 16 8.6 15.5 8 15 Z  M 11.2 16.3 L 11 16.3 L 11 15 L 13 15 C 12.4 15.5 11.8 16 11.2 16.3 Z  M 15 12.7 L 15 11 L 15.8 11 C 15.6 11.5 15.3 12.1 15 12.7 Z " fill="rgb(254,109,100)"/></svg>