<?xml version="1.0" encoding="UTF-8" standalone="no"?><!-- Generator: Gravit.io --><svg xmlns="http://www.w3.org/2000/svg" xmlns:xlink="http://www.w3.org/1999/xlink" style="isolation:isolate" viewBox="3 2 18 20" width="18pt" height="20pt"><path d=" M 18.5 14 C 19.9 14 21 15.1 21 16.5 C 21 17.9 19.9 19 18.5 19 C 17.1 19 16 17.9 16 16.5 C 16 15.1 17.1 14 18.5 14 Z  M 7 15 C 7 15 8 16 8 17 L 8 20.5 C 8 21.3 8.7 22 9.5 22 C 10.3 22 11 21.3 11 20.5 L 11 17 C 11 16 12 15 12 15 L 7 15 Z  M 8 14 L 11 14 C 11 14 16 14 16 9 C 16 4 12 2 9.5 2 C 7 2 3 4 3 9 C 3 14 8 14 8 14 Z " fill="rgb(87,108,168)"/></svg>