<?xml version="1.0" encoding="UTF-8" standalone="no"?><!-- Generator: Gravit.io --><svg xmlns="http://www.w3.org/2000/svg" xmlns:xlink="http://www.w3.org/1999/xlink" style="isolation:isolate" viewBox="2 2 20 20" width="20pt" height="20pt"><path d=" M 12 2 C 17.523 2 22 6.477 22 12 C 22 17.523 17.523 22 12 22 C 6.477 22 2 17.523 2 12 C 2 6.477 6.477 2 12 2 Z  M 13.6 20.35 C 15.96 18.04 17.69 15.08 18.5 11.76 C 17.84 11.62 17.18 11.54 16.5 11.5 C 15.56 15.11 13.41 18.22 10.5 20.37 C 11 20.45 11.5 20.5 12 20.5 C 12.55 20.5 13.08 20.45 13.6 20.35 Z  M 9.23 20.04 C 12.23 18.07 14.5 15.05 15.46 11.5 C 14.71 11.55 13.97 11.65 13.27 11.81 C 12.18 14.89 9.97 17.44 7.13 18.97 C 7.77 19.42 8.5 19.78 9.23 20.04 Z  M 20.5 12.37 C 20.16 12.23 19.81 12.11 19.46 12 C 18.76 14.9 17.39 17.53 15.54 19.73 C 18.36 18.44 20.35 15.64 20.5 12.37 Z  M 3.56 11.04 C 3.5 11.35 3.5 11.68 3.5 12 C 3.5 14.5 4.57 16.73 6.27 18.28 C 6.86 18 7.41 17.66 7.94 17.29 C 6.08 15.54 4.58 13.41 3.56 11.04 Z  M 5.33 6.74 C 4.73 7.5 4.26 8.35 3.95 9.28 C 4.92 12.13 6.58 14.66 8.74 16.67 C 9.25 16.24 9.72 15.77 10.15 15.26 C 7.74 13.03 6 10.08 5.33 6.74 Z  M 8.04 4.5 C 7.36 4.85 6.73 5.3 6.18 5.82 C 6.71 9.21 8.37 12.23 10.77 14.47 C 11.17 13.91 11.5 13.32 11.82 12.7 C 9.68 10.56 8.28 7.69 8.04 4.5 Z  M 19.96 9.03 C 18.7 8.68 17.37 8.5 16 8.5 C 14.1 8.5 12.28 8.85 10.61 9.5 C 10.96 10.1 11.35 10.67 11.8 11.2 C 13.12 10.75 14.53 10.5 16 10.5 C 17.57 10.5 19.08 10.78 20.47 11.29 C 20.4 10.5 20.23 9.74 19.96 9.03 Z  M 17.54 5.57 C 17.03 5.5 16.5 5.5 16 5.5 C 13.69 5.5 11.47 5.94 9.44 6.73 C 9.62 7.38 9.86 8 10.14 8.61 C 11.96 7.89 13.93 7.5 16 7.5 C 17.18 7.5 18.32 7.63 19.42 7.87 C 18.93 7 18.29 6.21 17.54 5.57 Z  M 16 4.5 C 14.79 3.87 13.44 3.5 12 3.5 C 10.95 3.5 9.94 3.7 9 4.05 C 9.04 4.63 9.11 5.2 9.21 5.75 C 11.31 4.95 13.6 4.5 16 4.5 Z " fill="rgb(169,151,223)"/></svg>