<?xml version="1.0" encoding="UTF-8" standalone="no"?><!-- Generator: Gravit.io --><svg xmlns="http://www.w3.org/2000/svg" xmlns:xlink="http://www.w3.org/1999/xlink" style="isolation:isolate" viewBox="3 3 18 18" width="18pt" height="18pt"><path d=" M 5 3 L 19 3 C 20.105 3 21 3.895 21 5 L 21 19 C 21 20.105 20.105 21 19 21 L 5 21 C 3.895 21 3 20.105 3 19 L 3 5 C 3 3.895 3.895 3 5 3 Z  M 7 5 C 5.895 5 5 5.895 5 7 C 5 8.105 5.895 9 7 9 C 8.105 9 9 8.105 9 7 C 9 5.895 8.105 5 7 5 Z  M 17 15 C 15.895 15 15 15.895 15 17 C 15 18.105 15.895 19 17 19 C 18.105 19 19 18.105 19 17 C 19 15.895 18.105 15 17 15 Z  M 17 5 C 15.895 5 15 5.895 15 7 C 15 8.105 15.895 9 17 9 C 18.105 9 19 8.105 19 7 C 19 5.895 18.105 5 17 5 Z  M 12 10 C 10.895 10 10 10.895 10 12 C 10 13.105 10.895 14 12 14 C 13.105 14 14 13.105 14 12 C 14 10.895 13.105 10 12 10 Z  M 7 15 C 5.895 15 5 15.895 5 17 C 5 18.105 5.895 19 7 19 C 8.105 19 9 18.105 9 17 C 9 15.895 8.105 15 7 15 Z " fill="rgb(8,8,8)"/></svg>